<?xml version="1.0" encoding="utf-8"?>
<!-- Generator: Adobe Illustrator 22.1.0, SVG Export Plug-In . SVG Version: 6.00 Build 0)  -->
<svg version="1.1" id="Capa_1" xmlns="http://www.w3.org/2000/svg" xmlns:xlink="http://www.w3.org/1999/xlink" x="0px" y="0px"
	 viewBox="0 0 11 22" style="enable-background:new 0 0 11 22;" xml:space="preserve">
<style type="text/css">
	.st0{fill:#998679;}
</style>
<g>
	<g>
		<path class="st0" d="M4.6,0.9v18.2l-3-3c-0.3-0.3-0.9-0.3-1.2,0c-0.3,0.3-0.3,0.9,0,1.2l4.5,4.5c0,0,0,0,0,0
			c0.3,0.3,0.9,0.3,1.2,0c0,0,0,0,0,0l4.5-4.5c0.3-0.3,0.3-0.9,0-1.2c-0.3-0.3-0.9-0.3-1.2,0l-3,3V0.9C6.4,0.4,6,0,5.5,0
			C5,0,4.6,0.4,4.6,0.9z"/>
	</g>
</g>
</svg>
