<?xml version="1.0" encoding="utf-8"?>
<!-- Generator: Adobe Illustrator 22.1.0, SVG Export Plug-In . SVG Version: 6.00 Build 0)  -->
<svg version="1.1" id="Layer_1" xmlns="http://www.w3.org/2000/svg" xmlns:xlink="http://www.w3.org/1999/xlink" x="0px" y="0px"
	 viewBox="0 0 55.2 14" style="enable-background:new 0 0 55.2 14;" xml:space="preserve">
<style type="text/css">
	.st0{fill:#FFFFFF;}
	.st1{fill:#CCA896;}
</style>
<polyline class="st0" points="0.8,6.8 54.4,6.8 48.6,0.8 "/>
<g>
	<line class="st0" x1="54.6" y1="6.8" x2="48.9" y2="13.2"/>
	<path class="st1" d="M55.2,6.8C55.2,6.8,55.2,6.8,55.2,6.8c0-0.1,0-0.2-0.1-0.3c0,0,0,0,0,0c0-0.1-0.1-0.1-0.1-0.2l-5.8-6
		C49,0,48.5,0,48.2,0.3c-0.3,0.3-0.3,0.8,0,1.1l4.6,4.8H0.8c-0.4,0-0.8,0.3-0.8,0.8s0.3,0.8,0.8,0.8h51.9l-4.6,5.1
		c-0.3,0.3-0.3,0.8,0.1,1.1c0.1,0.1,0.3,0.2,0.5,0.2c0.2,0,0.4-0.1,0.6-0.2L55,7.3c0,0,0,0,0,0c0.1-0.1,0.1-0.1,0.1-0.2c0,0,0,0,0,0
		c0,0,0,0,0-0.1C55.2,7,55.2,6.9,55.2,6.8z"/>
</g>
</svg>
