<?xml version="1.0" encoding="utf-8"?>
<!-- Generator: Adobe Illustrator 22.1.0, SVG Export Plug-In . SVG Version: 6.00 Build 0)  -->
<svg version="1.1" id="Capa_1" xmlns="http://www.w3.org/2000/svg" xmlns:xlink="http://www.w3.org/1999/xlink" x="0px" y="0px"
	 viewBox="0 0 106 106" style="enable-background:new 0 0 106 106;" xml:space="preserve">
<style type="text/css">
	.st0{fill:#B0957B;}
</style>
<g>
	<g>
		<path class="st0" d="M74.4,6.7c-5.8,0-11.5,1.6-16.5,4.7c-0.9,0.5-8.1,4.7-7,12.2c0.4,2.8,1.9,4.7,3.3,6.7c2,2.7,3.9,5.3,3.4,10.5
			c0,0-0.1,0-0.1,0c-1.5-0.8-3.2-0.9-4.7-0.4c-1.4,0.5-2.6,1.4-3.4,2.7c-0.5-0.5-1.1-0.9-1.8-1.3c-1.2-0.6-2.4-0.9-3.7-0.9
			c-0.1-1,0-1.7,0-2.5c0.1-1,0.2-2.1-0.1-3.8c-0.5-3.4-2.4-6.3-5.4-8.2c-3.7-2.4-8.6-3.1-12.8-1.8c-7.7,2.3-12.2,10.4-10,18.2
			c0.7,2.3,1.9,4.4,3.5,6.1c0.9,0.9,1.3,2.1,1.3,3.2c-0.1,3.3,0.3,6.6,1.4,9.8c2.2,6.8,7,12.4,13.6,15.8c4.1,2.1,8.5,3.2,12.9,3.2
			c2.6,0,5.3-0.4,7.8-1.2c1.4-0.4,2.8-1,4.1-1.6c3.6-1.8,6.5-4.8,8-8.5c0.9-2.1,1.3-4.3,1.4-6.5c1,0.2,2,0.1,3-0.2
			c3.2-1,5-4.6,4-7.9l-1.6-5.1c-1.1-3.4-3.7-6-7.2-6.9c-2.2-0.6-4.4-0.5-6.5,0.3c1.5-8.2-1.5-12.2-3.9-15.5
			c-1.2-1.6-2.3-3.1-2.5-4.8c-0.7-5,4.7-7.9,4.9-8c0.1,0,0.1-0.1,0.2-0.1c4.3-2.7,9.2-4.1,14.3-4.1c15.1,0,27.4,12.6,27.4,28.2
			c0,17.1-13.4,31.4-24.6,40.4C66.7,87.9,56.1,93.4,53,94.9c-2.9-1.4-12.9-6.6-23-14.5c-0.9-0.7-2.2-0.5-2.9,0.4
			c-0.7,0.9-0.5,2.2,0.4,2.9c12.4,9.7,24.2,15.2,24.7,15.4c0.3,0.1,0.6,0.2,0.9,0.2c0.3,0,0.6-0.1,0.9-0.2
			C54.4,98.8,67,93,79.8,82.7c7.6-6.1,13.6-12.4,17.9-18.8c5.5-8.2,8.3-16.5,8.3-24.9C106,21.2,91.8,6.7,74.4,6.7z M41.2,48.2
			c0.9-0.8,2-1.7,2.5-3c0.7-0.1,1.4,0.1,2,0.4c0.7,0.4,1.3,1,1.6,1.7l-0.9,1.7l-6-0.1C40.7,48.6,40.9,48.4,41.2,48.2z M59.4,50.9
			l0.7-1.4c0.3-0.4,0.6-0.8,1-1.1c1.6-1.4,3.7-1.9,5.8-1.4c2.1,0.6,3.7,2.1,4.3,4.1l1.6,5.1c0.4,1.1-0.2,2.3-1.3,2.7
			c-1,0.3-2.1-0.2-2.5-1.2l-1.2-3.9c-0.3-1.1-1.5-1.7-2.6-1.4c-1.1,0.3-1.7,1.5-1.4,2.6l1.2,4c1.9,6.1-0.9,12.4-6.5,15.2
			c-1.1,0.5-2.3,1-3.5,1.4C43,79.4,29.6,72.4,25.7,60.6c-0.9-2.7-1.3-5.5-1.2-8.3c0.1-2.3-0.8-4.6-2.4-6.3c-1.2-1.2-2-2.7-2.5-4.4
			c-1.6-5.6,1.6-11.4,7.2-13c1-0.3,2.1-0.5,3.2-0.5c2.2,0,4.4,0.6,6.2,1.8c1.4,0.9,3.2,2.6,3.6,5.3c0.2,1.3,0.1,2,0,2.9
			c-0.1,1.1-0.2,2.2,0.1,4.3c0.2,1.2-0.1,1.4-1.5,2.6c-0.4,0.3-0.8,0.7-1.3,1.2c0,0,0,0,0,0l0,0c-1.1,1.1-1.5,2.8-0.9,4.2
			c0.6,1.5,2,2.4,3.5,2.4l7.1,0.1c1.3,0,2.5-0.7,3-1.8l3-5.9c0.3-0.5,0.7-0.9,1.2-1c0.5-0.2,1.1-0.1,1.6,0.1c0.5,0.3,0.9,0.7,1,1.2
			c0.2,0.5,0.1,1.1-0.1,1.6l-0.1,0.2c-0.3,0.5-0.6,1.1-0.9,1.7l-2,4c-0.9,1.8-2.5,3.1-4.5,3.7c-0.8,0.2-1.6,0.4-2.3,0.3l-9-0.2
			c-1.1,0-2.1,0.9-2.1,2c0,1.1,0.9,2.1,2,2.1l9,0.2c1.2,0,2.5-0.2,3.7-0.5c2.1-0.6,3.9-1.9,5.4-3.5l1.5,4.7c0.3,1.1,1.5,1.7,2.6,1.4
			c1.1-0.3,1.7-1.5,1.4-2.6l-1.8-5.9C58.8,53.5,58.9,52.2,59.4,50.9z"/>
	</g>
</g>
<g>
	<g>
		<path class="st0" d="M24.2,75.6L24.2,75.6c-0.9-0.8-2.2-0.7-3,0.1s-0.7,2.2,0.2,2.9l0.1,0.1c0.4,0.4,0.9,0.5,1.4,0.5
			c0.6,0,1.1-0.2,1.5-0.7C25.1,77.7,25.1,76.4,24.2,75.6z"/>
	</g>
</g>
<g>
	<g>
		<path class="st0" d="M48.1,11.5c-5-3.1-10.7-4.8-16.5-4.8C14.2,6.7,0,21.2,0,39c0,11.3,5.1,22.5,15,33.3c0.4,0.4,1,0.7,1.5,0.7
			c0.5,0,1-0.2,1.4-0.5c0.8-0.8,0.9-2.1,0.1-2.9C8.8,59.5,4.1,49.2,4.1,39c0-15.5,12.3-28.2,27.4-28.2c5.1,0,10,1.4,14.3,4.1
			c1,0.6,2.2,0.3,2.9-0.6C49.4,13.4,49.1,12.1,48.1,11.5z"/>
	</g>
</g>
<g>
	<g>
		<path class="st0" d="M74.4,16.6c-1.1,0-2.1,0.9-2.1,2.1s0.9,2.1,2.1,2.1h0c1.1,0,2.1-0.9,2.1-2.1S75.6,16.6,74.4,16.6z"/>
	</g>
</g>
<g>
	<g>
		<path class="st0" d="M92.4,26.1c-2.6-3.7-6.1-6.5-10.3-8.1c-1.1-0.4-2.3,0.1-2.7,1.2c-0.4,1.1,0.1,2.3,1.2,2.7
			c6.9,2.7,11.6,9.6,11.6,17.2c0,1.1,0.9,2.1,2.1,2.1c1.1,0,2.1-0.9,2.1-2.1C96.4,34.4,95,29.9,92.4,26.1z"/>
	</g>
</g>
</svg>
