<?xml version="1.0" encoding="utf-8"?>
<!-- Generator: Adobe Illustrator 22.1.0, SVG Export Plug-In . SVG Version: 6.00 Build 0)  -->
<svg version="1.1" id="Capa_1" xmlns="http://www.w3.org/2000/svg" xmlns:xlink="http://www.w3.org/1999/xlink" x="0px" y="0px"
	 viewBox="0 0 93 93" style="enable-background:new 0 0 93 93;" xml:space="preserve">
<style type="text/css">
	.st0{fill:#B0957B;}
</style>
<g>
	<g>
		<g>
			<path class="st0" d="M60.2,38.4c-0.2,1.2-0.8,3.6-2.2,5c-0.6,0.6-0.7,1.6-0.3,2.3c0.4,0.7,1,1.1,1.8,1.1c0.1,0,0.2,0,0.4,0
				c6.5-1.2,9.2-3.8,10.4-6c11.1-0.2,20-9.2,20-20.3c0-11.2-9.1-20.3-20.3-20.3c0,0,0,0,0,0c-2.2,0-4.4,0.4-6.5,1.1
				c-0.7,0.2-1.1,1-0.8,1.7c0.2,0.7,1,1.1,1.7,0.8c1.8-0.6,3.7-0.9,5.6-0.9h0c9.7,0,17.6,7.9,17.6,17.6c0,9.7-7.9,17.6-17.6,17.6
				c-0.8,0-1.6,0.5-1.9,1.2c-1.2,2.4-4.3,3.7-6.7,4.4c1.1-1.9,1.6-4,1.8-5.3c0.1-0.9-0.3-1.8-1.1-2.2c-5.9-3-9.5-9-9.5-15.7
				c0-5.5,2.5-10.5,6.8-13.9c0.6-0.5,0.7-1.3,0.2-1.9C58.9,4.1,58,4,57.4,4.4c-5,3.9-7.9,9.7-7.9,16.1C49.5,28,53.6,34.8,60.2,38.4
				L60.2,38.4z"/>
			<path class="st0" d="M22.7,36.1c-0.7,0-1.4,0.6-1.4,1.4v2.3c0,0.7,0.6,1.4,1.4,1.4c0.7,0,1.4-0.6,1.4-1.4v-2.3
				C24,36.8,23.4,36.1,22.7,36.1z"/>
			<path class="st0" d="M33.1,36.1c-0.7,0-1.4,0.6-1.4,1.4v2.3c0,0.7,0.6,1.4,1.4,1.4c0.7,0,1.4-0.6,1.4-1.4v-2.3
				C34.5,36.8,33.9,36.1,33.1,36.1z"/>
			<path class="st0" d="M28.7,46.3c-0.2,0.2-0.5,0.3-0.8,0.3c-0.3,0-0.6-0.1-0.8-0.4c-0.5-0.6-1.3-0.6-1.9-0.1
				c-0.6,0.5-0.6,1.3-0.1,1.9c0.7,0.8,1.8,1.3,2.9,1.3c1,0,2-0.4,2.8-1.2c0.5-0.5,0.5-1.4-0.1-1.9C30.1,45.7,29.2,45.7,28.7,46.3
				L28.7,46.3z"/>
			<path class="st0" d="M90.6,83.5H53V54.2c0-1.3-1.1-2.4-2.4-2.4h-2.8V41.4c0.5-0.7,0.7-1.5,0.7-2.4v0c0-0.9-0.3-1.7-0.7-2.4v-7.7
				c0-11-8.9-19.9-19.9-19.9C16.9,9,8,17.9,8,28.9v7.7c-0.5,0.7-0.7,1.5-0.7,2.4v0c0,0.9,0.3,1.7,0.7,2.4v10.4H5.2
				c-1.3,0-2.4,1.1-2.4,2.4v8.9c0,0.7,0.6,1.4,1.4,1.4s1.4-0.6,1.4-1.4v-8.5h44.8v28.9H5.5V69.3c0-0.7-0.6-1.4-1.4-1.4
				s-1.4,0.6-1.4,1.4v14.2H2.4c-1.3,0-2.4,1.1-2.4,2.4v4.7c0,1.3,1.1,2.4,2.4,2.4h88.3c1.3,0,2.4-1.1,2.4-2.4v-4.7
				C93,84.5,91.9,83.5,90.6,83.5L90.6,83.5z M10.7,28.9c0-9.5,7.7-17.2,17.2-17.2s17.2,7.7,17.2,17.2v6c-0.2,0-0.5-0.1-0.7-0.1h-0.5
				V33c0-0.8-0.7-1.4-1.4-1.4c-8.6,0.5-13.4-4.5-13.6-4.8c-0.3-0.3-0.8-0.5-1.2-0.4c-0.4,0.1-0.8,0.4-1,0.7
				c-0.2,0.2-0.3,0.3-0.5,0.5c-1.3,1.1-2.9,2-4.5,2.7c-2.6,1.1-5.5,1.5-8.3,1.3c-0.4,0-0.8,0.1-1.1,0.4c-0.3,0.3-0.4,0.8-0.4,1.2
				v1.6h-0.5c-0.2,0-0.5,0-0.7,0.1L10.7,28.9L10.7,28.9z M9.9,39.1L9.9,39.1c0-0.8,0.7-1.5,1.5-1.5h0.5v3h-0.5
				C10.6,40.5,9.9,39.9,9.9,39.1z M10.7,51.9v-8.7c0.2,0,0.5,0.1,0.7,0.1H12c0.4,3.3,1.7,6.3,3.8,8.6H10.7z M36.1,51.9H19.7
				c-3.1-2.4-5.1-6.2-5.1-10.4v-5.2c0,0,0,0,0,0v-1.8c6.8,0,11.4-3.1,13.3-4.7c1.9,1.6,6.4,4.7,13.3,4.7v1.8v5.2
				C41.2,45.7,39.2,49.4,36.1,51.9L36.1,51.9z M45.1,51.9H40c2.1-2.4,3.4-5.3,3.8-8.6h0.6c0.2,0,0.5,0,0.7-0.1L45.1,51.9L45.1,51.9z
				 M45.9,39.1c0,0.8-0.7,1.5-1.5,1.5h-0.5v-3h0.5C45.2,37.6,45.9,38.2,45.9,39.1L45.9,39.1z M90.3,90.1H2.7v-3.9h87.6V90.1z"/>
			<path class="st0" d="M32.3,69c0-3-2.4-5.4-5.4-5.4c-3,0-5.4,2.4-5.4,5.4s2.4,5.4,5.4,5.4S32.3,72,32.3,69z M24.2,69
				c0-1.5,1.2-2.7,2.7-2.7s2.7,1.2,2.7,2.7s-1.2,2.7-2.7,2.7S24.2,70.5,24.2,69z"/>
			<path class="st0" d="M60.8,15.1h18.1c0.7,0,1.4-0.6,1.4-1.4s-0.6-1.4-1.4-1.4H60.8c-0.7,0-1.4,0.6-1.4,1.4
				C59.5,14.5,60.1,15.1,60.8,15.1z"/>
			<path class="st0" d="M80.3,19.5c0-0.7-0.6-1.4-1.4-1.4H60.8c-0.7,0-1.4,0.6-1.4,1.4c0,0.7,0.6,1.4,1.4,1.4h18.1
				C79.7,20.9,80.3,20.3,80.3,19.5z"/>
			<path class="st0" d="M60.8,23.9c-0.7,0-1.4,0.6-1.4,1.4c0,0.7,0.6,1.4,1.4,1.4h10.9c0.7,0,1.4-0.6,1.4-1.4c0-0.7-0.6-1.4-1.4-1.4
				H60.8z"/>
		</g>
	</g>
</g>
</svg>
