<?xml version="1.0" encoding="utf-8"?>
<!-- Generator: Adobe Illustrator 22.1.0, SVG Export Plug-In . SVG Version: 6.00 Build 0)  -->
<svg version="1.1" id="Capa_1" xmlns="http://www.w3.org/2000/svg" xmlns:xlink="http://www.w3.org/1999/xlink" x="0px" y="0px"
	 viewBox="0 0 93 93" style="enable-background:new 0 0 93 93;" xml:space="preserve">
<style type="text/css">
	.st0{fill:#B0957B;}
</style>
<g>
	<path class="st0" d="M83.6,11.5C77.6,5.4,69.5,2.1,61,2.1c-8.6,0-16.6,3.3-22.7,9.4c-6.1,6.1-9.4,14.1-9.4,22.7c0,4.8,1,9.4,3,13.6
		l-3.4,3.4c-1.8,1.8-1.8,4.8,0,6.7l0.4,0.4l-5.5,5.5l-4.5-4.5c-1.2-1.2-3-1.2-4.2,0l-4,4c-0.9,0.9-0.9,2.4,0,3.3l1.5,1.5
		c0.1,0.1,0.1,0.1,0,0.2l-2.5,2.5c-0.1,0.1-0.1,0.1-0.2,0L8.1,69c-0.4-0.4-1-0.7-1.6-0.7S5.3,68.5,4.8,69l-4,4C0.3,73.5,0,74.2,0,75
		c0,0.8,0.3,1.5,0.9,2.1l4.5,4.5L5,82c-1.7,1.7-1.7,4.3,0,6l1.7,1.7c0.8,0.8,1.9,1.2,3,1.2c1.1,0,2.2-0.4,3-1.2l23.9-23.9l0.4,0.4
		c0.9,0.9,2.1,1.4,3.3,1.4c1.3,0,2.4-0.5,3.3-1.4l3.3-3.3c4.3,2.1,9.1,3.2,14.1,3.2c8.6,0,16.6-3.3,22.7-9.4
		C96.1,44.3,96.1,24,83.6,11.5L83.6,11.5z M10.7,87.7c-0.6,0.6-1.6,0.6-2.2,0l-1.7-1.7c-0.3-0.3-0.4-0.7-0.4-1.1
		c0-0.4,0.2-0.8,0.4-1.1l4.2-4.2l3.8,3.8L10.7,87.7z M14.8,76.1l3.8,3.8l-1.7,1.7l-3.8-3.8L14.8,76.1z M20.5,77.9l-3.8-3.8l1.1-1.1
		c0.5-0.5,0.5-1.4,0-1.9c-0.5-0.5-1.4-0.5-1.9,0l-8.6,8.6l-4.5-4.5c-0.1-0.1-0.1-0.1-0.1-0.2c0,0,0-0.1,0.1-0.2l3.7-3.7l1.2,1.2
		c0.5,0.5,1.3,0.8,2,0.8c0.8,0,1.5-0.3,2-0.8l2.5-2.5c1.1-1.1,1.1-2.9,0-4L13,64.6l3.7-3.7c0.1-0.1,0.2-0.1,0.3,0l4.5,4.5L20,67
		c-0.5,0.5-0.5,1.4,0,1.9c0.3,0.3,0.6,0.4,1,0.4c0.3,0,0.7-0.1,1-0.4l8.9-8.9l3.8,3.8L20.5,77.9z M41.7,64.3
		c-0.4,0.4-0.9,0.6-1.4,0.6c-0.5,0-1-0.2-1.4-0.6l-8.4-8.4c-0.8-0.8-0.8-2,0-2.8l2.8-2.8c1.4,2.4,3.1,4.6,5.1,6.6
		c1.9,1.9,3.9,3.5,6.1,4.8L41.7,64.3z M81.7,54.9c-5.5,5.5-12.9,8.6-20.7,8.6c-7.8,0-15.2-3-20.7-8.6c-5.5-5.5-8.6-12.9-8.6-20.7
		s3.1-15.2,8.6-20.7C45.8,7.9,53.1,4.8,61,4.8c7.8,0,15.2,3,20.7,8.6C93.1,24.8,93.1,43.4,81.7,54.9L81.7,54.9z"/>
	<path class="st0" d="M85.4,29.6c-0.9-5-3.3-9.5-6.9-13.1C73.8,11.9,67.6,9.3,61,9.3c-6.6,0-12.9,2.6-17.5,7.3
		c-9.7,9.7-9.7,25.4,0,35.1c4.7,4.7,10.9,7.3,17.5,7.3c6.6,0,12.9-2.6,17.5-7.3c0.7-0.7,1.4-1.5,2.1-2.3c0.5-0.6,0.4-1.4-0.2-1.9
		c-0.6-0.5-1.4-0.4-1.9,0.2c-0.6,0.7-1.2,1.4-1.8,2.1c-0.8,0.8-1.6,1.5-2.4,2.1c-1-1.6-2.6-2.9-4.3-3.6l-4.6-1.8v-1.2
		c0.9-0.5,1.7-1.1,2.4-1.9c0.3,0,0.7,0.1,1,0.1c2.5,0,4.9-1.1,6.4-3.2c1.8-2.4,2.2-5.5,1-8.3l-2-4.7c-0.2-0.4-0.3-0.7-0.3-1.1
		c-0.4-3.1-2-5.9-4.3-7.9c-2.3-2-5.3-3.1-8.4-3.1c-2,0-4.1,0.5-5.9,1.4c-0.7,0.3-0.9,1.2-0.6,1.8c0.3,0.7,1.2,0.9,1.8,0.6
		c1.4-0.7,3-1.1,4.6-1.1c5,0,9.3,3.7,10.1,8.7c0.1,0.6,0.3,1.2,0.5,1.8l2,4.7c0.8,1.9,0.5,3.9-0.7,5.5c-0.9,1.2-2.2,1.9-3.6,2.1
		c0.4-1,0.6-2,0.6-3.2v-8.7c0-1.3-1-2.3-2.3-2.3l-5.3-0.1c-1.7,0-3.4-0.7-4.8-1.8l-0.4-0.3c-0.4-0.3-0.9-0.5-1.5-0.4
		c-0.5,0.1-1,0.3-1.3,0.7c-1.4,1.8-2.2,4.1-2.2,6.4v6.5c0,1.1,0.2,2.2,0.6,3.2c-1.4-0.2-2.7-0.9-3.6-2.1c-1.2-1.6-1.5-3.7-0.7-5.5
		l2-4.7c0.3-0.6,0.4-1.2,0.5-1.8c0.2-1.5,0.8-2.9,1.6-4.2c0.4-0.6,0.2-1.5-0.4-1.9c-0.6-0.4-1.5-0.2-1.9,0.4c-1.1,1.6-1.7,3.4-2,5.3
		c-0.1,0.4-0.2,0.8-0.3,1.1l-2,4.7c-1.2,2.8-0.8,5.9,1,8.3c1.6,2,3.9,3.2,6.4,3.2c0.3,0,0.7,0,1-0.1c0.6,0.7,1.3,1.3,2.1,1.8v1.3
		l-4.6,1.8c-1.8,0.7-3.2,1.9-4.3,3.5c-0.8-0.6-1.6-1.3-2.3-2c-8.6-8.6-8.6-22.6,0-31.2C49.5,14.3,55.1,12,61,12s11.4,2.3,15.6,6.5
		c3.2,3.2,5.3,7.2,6.1,11.6c0.8,4.3,0.3,8.7-1.4,12.7c-0.3,0.7,0,1.5,0.7,1.8c0.7,0.3,1.5,0,1.8-0.7C85.7,39.4,86.3,34.5,85.4,29.6
		L85.4,29.6z M54.8,31c0-1.4,0.4-2.9,1.2-4.1c1.8,1.3,3.9,2.1,6.2,2.2l5,0.1v8.3c0,3.4-2.8,6.2-6.2,6.2s-6.2-2.8-6.2-6.2L54.8,31
		L54.8,31z M61,46.4c0.5,0,1.1,0,1.6-0.1v1.1c0,0.9-0.8,1.7-1.7,1.7s-1.7-0.8-1.7-1.7v-1.2C59.7,46.3,60.4,46.4,61,46.4z M52.9,50.8
		l4-1.6c0.7,1.5,2.2,2.6,4,2.6c1.8,0,3.3-1,4-2.6l4,1.6c1.3,0.5,2.3,1.4,3.1,2.5c-3.3,1.9-7,2.9-10.9,2.9c-4,0-7.8-1-11.1-3
		C50.6,52.1,51.7,51.3,52.9,50.8L52.9,50.8z"/>
</g>
</svg>
