<?xml version="1.0" encoding="utf-8"?>
<!-- Generator: Adobe Illustrator 22.1.0, SVG Export Plug-In . SVG Version: 6.00 Build 0)  -->
<svg version="1.1" id="Capa_1" xmlns="http://www.w3.org/2000/svg" xmlns:xlink="http://www.w3.org/1999/xlink" x="0px" y="0px"
	 viewBox="0 0 93 93" style="enable-background:new 0 0 93 93;" xml:space="preserve">
<style type="text/css">
	.st0{fill:#B0957B;}
</style>
<g>
	<g>
		<path class="st0" d="M71.3,0H21.7c-2.6,0-4.6,2.1-4.6,4.7s2.1,4.7,4.6,4.7h49.6c2.6,0,4.7-2.1,4.7-4.7S73.9,0,71.3,0z M71.3,6.2
			H21.7c-0.9,0-1.5-0.7-1.5-1.5s0.7-1.5,1.5-1.5h49.6c0.9,0,1.5,0.7,1.5,1.5S72.2,6.2,71.3,6.2z"/>
	</g>
</g>
<g>
	<g>
		<path class="st0" d="M71.3,83.7H21.7c-2.6,0-4.6,2.1-4.6,4.7s2.1,4.7,4.6,4.7h49.6c2.6,0,4.7-2.1,4.7-4.7S73.9,83.7,71.3,83.7z
			 M71.3,89.9H21.7c-0.9,0-1.5-0.7-1.5-1.5c0-0.9,0.7-1.5,1.5-1.5h49.6c0.9,0,1.5,0.7,1.5,1.5C72.9,89.2,72.2,89.9,71.3,89.9z"/>
	</g>
</g>
<g>
	<g>
		<path class="st0" d="M57.5,40.7c7.9-7.9,12.2-18.3,12.2-29.5V7.8c0-0.9-0.7-1.5-1.5-1.5H24.8c-0.9,0-1.5,0.7-1.5,1.5v3.5
			c0,11.1,4.3,21.6,12.2,29.5l1.6,1.6c1.1,1.1,1.7,2.6,1.7,4.2s-0.6,3.1-1.7,4.2l-1.6,1.6c-7.9,7.9-12.2,18.3-12.2,29.5v3.5
			c0,0.9,0.7,1.5,1.5,1.5h43.4c0.9,0,1.5-0.7,1.5-1.5v-3.5c0-11.1-4.3-21.6-12.2-29.5L56,50.7c-1.1-1.1-1.7-2.6-1.7-4.2
			c0-1.6,0.6-3.1,1.7-4.2L57.5,40.7z M53.8,40.1c-1.7,1.7-2.6,4-2.6,6.4c0,2.4,0.9,4.7,2.6,6.4l1.6,1.6c7.3,7.3,11.3,17,11.3,27.3v2
			H26.4v-2c0-10.3,4-20,11.3-27.3l1.6-1.6c1.7-1.7,2.6-4,2.6-6.4s-0.9-4.7-2.6-6.4l-1.6-1.6c-7.3-7.3-11.3-17-11.3-27.3v-2h40.3v2
			c0,10.3-4,20-11.3,27.3L53.8,40.1z"/>
	</g>
</g>
<g>
	<g>
		<path class="st0" d="M59.6,26.1c-0.2-0.4-0.7-1.3-2.2-1.3c-8.1,0-11.6-1.7-13.1-2.8c-1.8-1.3-4.1-1.6-6.1-0.9
			c-2,0.7-3.4,2.2-3.9,4.2c-0.1,0.5-0.2,0.9-0.2,0.9c0,0.3,0,0.6,0.2,0.9c1.5,2.6,3.1,5.3,5.5,7.7l1.6,1.6c2.3,2.3,3.6,5.3,3.6,8.6
			c0,0.9,0.7,1.5,1.5,1.5s1.5-0.7,1.5-1.5c0-3.2,1.3-6.3,3.6-8.6l1.6-1.6c0.4-0.4,0.9-0.9,1.4-1.4C58.6,29.7,60.3,27.8,59.6,26.1z
			 M52.5,31.2c-0.6,0.5-1.1,1-1.5,1.4l-1.6,1.6c-1.2,1.2-2.2,2.6-2.9,4.1c-0.7-1.5-1.7-2.9-2.9-4.1L42,32.6c-1.9-1.9-3.3-4-4.7-6.5
			c0.4-1.3,1.4-1.8,1.9-2c1.1-0.4,2.3-0.2,3.2,0.5c2,1.4,5.9,3.1,13.3,3.3C54.8,29,53.3,30.4,52.5,31.2z"/>
	</g>
</g>
<g>
	<g>
		<path class="st0" d="M63.4,78.9c-0.4-5-2.4-7.1-4.7-9.5c-0.3-0.3-0.6-0.7-1-1c-1.9-2.1-4.7-3.3-7.5-3.3h-7.4
			c-2.8,0-5.6,1.2-7.5,3.3c-0.3,0.4-0.7,0.7-1,1c-2.3,2.4-4.3,4.5-4.7,9.5c0,0.4,0.1,0.9,0.4,1.2c0.3,0.3,0.7,0.5,1.1,0.5h30.8
			c0.4,0,0.8-0.2,1.1-0.5C63.3,79.8,63.5,79.4,63.4,78.9z M32.9,77.5c0.5-2.7,1.8-4,3.7-5.9c0.3-0.3,0.7-0.7,1-1.1
			c1.4-1.5,3.3-2.3,5.3-2.3h7.4c2,0,3.9,0.8,5.3,2.3c0.3,0.4,0.7,0.7,1,1.1c1.9,1.9,3.1,3.2,3.7,5.9H32.9z"/>
	</g>
</g>
<g>
	<g>
		<path class="st0" d="M46.5,49.6c-0.9,0-1.5,0.7-1.5,1.5v1.5c0,0.9,0.7,1.5,1.5,1.5c0.9,0,1.5-0.7,1.5-1.5v-1.5
			C48,50.3,47.3,49.6,46.5,49.6z"/>
	</g>
</g>
<g>
	<g>
		<path class="st0" d="M46.5,57.3c-0.9,0-1.5,0.7-1.5,1.5v1.5c0,0.9,0.7,1.5,1.5,1.5c0.9,0,1.5-0.7,1.5-1.5v-1.5
			C48,58,47.3,57.3,46.5,57.3z"/>
	</g>
</g>
</svg>
