<?xml version="1.0" encoding="utf-8"?>
<!-- Generator: Adobe Illustrator 22.1.0, SVG Export Plug-In . SVG Version: 6.00 Build 0)  -->
<svg version="1.1" id="Layer_1" xmlns="http://www.w3.org/2000/svg" xmlns:xlink="http://www.w3.org/1999/xlink" x="0px" y="0px"
	 viewBox="0 0 30 30" style="enable-background:new 0 0 30 30;" xml:space="preserve">
<style type="text/css">
	.st0{fill:#B0957B;}
</style>
<path class="st0" d="M23.8,3.4H6.2C2.8,3.4,0,6.2,0,9.6v9.5c0,2.7,1.8,5.1,4.4,5.8l3,3c0.2,0.2,0.4,0.3,0.6,0.3
	c0.2,0,0.5-0.1,0.6-0.3l2.7-2.7h12.6c3.4,0,6.2-2.8,6.2-6.2V9.6C30,6.2,27.2,3.4,23.8,3.4z M28.2,19c0,2.4-2,4.4-4.4,4.4H10.9
	c-0.2,0-0.5,0.1-0.6,0.3L7.9,26l-2.5-2.5c-0.1-0.1-0.3-0.2-0.4-0.2c-1.9-0.5-3.3-2.2-3.3-4.2V9.6c0-2.4,2-4.4,4.4-4.4h17.7
	c2.4,0,4.4,2,4.4,4.4V19z"/>
</svg>
