<?xml version="1.0" encoding="utf-8"?>
<!-- Generator: Adobe Illustrator 22.1.0, SVG Export Plug-In . SVG Version: 6.00 Build 0)  -->
<svg version="1.1" id="Capa_1" xmlns="http://www.w3.org/2000/svg" xmlns:xlink="http://www.w3.org/1999/xlink" x="0px" y="0px"
	 viewBox="0 0 74 74" style="enable-background:new 0 0 74 74;" xml:space="preserve">
<style type="text/css">
	.st0{fill:#EEE7E3;}
</style>
<g>
	<path class="st0" d="M42.8,74c-2.3,0-6-0.5-9.8-1.4c-0.6-0.1-0.9-0.7-0.8-1.3c0.1-0.6,0.7-0.9,1.3-0.8c3.7,0.9,7.2,1.4,9.3,1.4
		c2.1,0,3.3-0.5,3.9-0.9c0.6-0.4,0.9-0.9,0.9-1.4c0-0.7-0.6-1.4-1.7-1.4h-6.6c-0.2,0-0.4-0.1-0.6-0.2c-0.1-0.1-11.2-7.4-11.8-7.8
		l-4,6.8c2,0.9,4.2,1.7,6.8,2.4c0.6,0.2,0.9,0.8,0.7,1.3c-0.2,0.6-0.8,0.9-1.3,0.7c-4.5-1.3-12.4-4.1-15.1-8.2
		c-1.4-2.1-1.4-4.8,0-6.9c0.9-1.4,2.3-2.3,4-2.6c1.6-0.3,3.3,0,4.6,1c0.4,0.3,1.3,0.9,2.5,1.7c-0.1-0.3-0.2-0.6-0.3-1
		c-0.4-1.6-0.4-3.3-0.1-4.8l-1.4,0.6c-1.4,0.7-3.1,0.4-4.3-0.5c-1.2-1-1.8-2.6-1.5-4.1l2.8-13.3c0.5-2.6,2.4-4.7,4.9-5.6l5.2-1.8
		c-2-1.7-3.4-4.2-3.6-6.9c-1.1-0.6-2-1.9-2-3.4c0-1.5,0.9-2.8,2-3.4v-1.9C26.8,4.6,31.4,0,37,0c1.9,0,3.8,0.5,5.4,1.5
		c0.5,0.3,0.7,1,0.3,1.5c-0.3,0.5-1,0.7-1.5,0.3C40,2.6,38.5,2.2,37,2.2c-4.4,0-8,3.6-8,8v1.6c4-0.6,7.7-4,9.3-6.4
		c0.2-0.3,0.6-0.5,1-0.5c0.4,0,0.8,0.3,0.9,0.7c0.6,1.5,1.6,3.2,2.9,4.5c0.7,0.7,1.4,1.2,1.9,1.5v-1.3c0-1.5-0.4-3-1.2-4.2
		c-0.3-0.5-0.2-1.2,0.3-1.5c0.5-0.3,1.2-0.2,1.5,0.3c1,1.6,1.5,3.5,1.5,5.4v1.9c1.1,0.6,2,1.9,2,3.4c0,1.5-0.9,2.9-2,3.4
		c-0.2,2.8-1.6,5.2-3.6,6.9l5.2,1.8c0.9,0.3,1.7,0.7,2.4,1.3c0.5,0.4,0.5,1.1,0.1,1.5c-0.4,0.5-1.1,0.5-1.5,0.1
		c-0.5-0.4-1.1-0.7-1.7-0.9l-2.5-0.9c-0.8,2.8-3.2,6-8.2,7.4c-0.2,0.1-0.4,0.1-0.6,0c-5-1.4-7.5-4.6-8.2-7.4l-2.5,0.9
		c-1.8,0.6-3.1,2.2-3.5,4L19.6,47c-0.2,0.8,0.1,1.5,0.7,2c0.6,0.5,1.4,0.6,2.1,0.3l3.7-1.7l-1.2-3.5L24,44.4
		c-0.6,0.2-1.2-0.1-1.4-0.7c-0.2-0.6,0.1-1.2,0.7-1.4l1.3-0.4c0.1-1,0.3-2,0.7-3.3l0.9-2.5c0.2-0.6,0.8-0.9,1.4-0.7
		c0.6,0.2,0.9,0.8,0.7,1.4l-0.9,2.5c-0.2,0.7-0.4,1.3-0.5,1.9l5.5-1.9c1.4-0.5,2.5-0.8,4.3-0.8c4.5,0,6.6,3.9,7.1,6
		c0.1,0.3,0,0.7-0.2,0.9c-0.2,0.3-0.5,0.4-0.9,0.4h-7.4l-8,3.6l-0.1,0.3c-1.1,2.7-0.7,7.5,2.6,9.8c0.3,0.2,0.6,0.4,0.9,0.6l3.1-1.2
		c0.6-0.2,1.2,0.1,1.4,0.6c0.2,0.6-0.1,1.2-0.6,1.4l-1.5,0.6c3.3,1.6,6.1,1.2,9.8-1.2l5.8-5.4l-3.2-2.7l-4.5,6
		c-0.1,0.2-0.3,0.3-0.5,0.4l-2,0.8c-0.6,0.2-1.2-0.1-1.4-0.6c-0.2-0.6,0.1-1.2,0.6-1.4l1.7-0.7l6.5-8.6l-0.3-1.5
		c-0.1-0.3,0-0.7,0.3-1c1.8-2,1.6-3.9,0.7-6.5l-0.9-2.5c-0.2-0.6,0.1-1.2,0.7-1.4c0.6-0.2,1.2,0.1,1.4,0.7l0.9,2.5
		c0.9,2.5,1.4,5.4-0.8,8.2l0.3,1.4c0.1,0.3,0,0.6-0.2,0.9l-1.1,1.5l3.5,2.9l2.9-2.7c1-0.9,1.5-2.4,1.2-3.7l-2.8-13.3
		c-0.1-0.6,0.3-1.2,0.8-1.3c0.6-0.1,1.2,0.3,1.3,0.8l2.8,13.3c0.4,2.1-0.3,4.3-1.8,5.8L53,54c1-0.3,2.1-0.4,3.2-0.2
		c1.6,0.3,3,1.2,3.9,2.6c1.4,2.1,1.4,4.8,0,6.9c-2,2.9-6.6,5.2-10.4,6.6C49.6,71,49,72,47.9,72.7C46.7,73.6,45,74,42.8,74L42.8,74z
		 M39.5,65.9h6.3c1.5,0,2.7,0.7,3.4,1.8c0.7-0.3,1.3-0.5,1.9-0.8l-4-6.8c-0.9,0.6-1.9,1.3-3,2c-2.3,1.5-4.5,2.4-6.6,2.5
		C38.5,65.2,39.2,65.7,39.5,65.9z M19.1,55.8c-0.3,0-0.5,0-0.8,0.1c-1.1,0.2-2,0.8-2.6,1.7c-0.9,1.4-0.9,3.1,0,4.5
		c0.9,1.3,2.7,2.7,5.2,4L25,59c-1.7-1.1-3.1-2.1-3.7-2.4C20.7,56,19.9,55.8,19.1,55.8L19.1,55.8z M49,59l4.1,7.1
		c2.5-1.3,4.3-2.6,5.2-4c0.9-1.4,0.9-3.1,0-4.5c-0.6-0.9-1.5-1.5-2.5-1.7c-1.1-0.2-2.2,0-3.2,0.6C51.9,57,50.7,57.9,49,59L49,59z
		 M26.9,43.4l1.1,3.3l6.5-3c0.1-0.1,0.3-0.1,0.4-0.1h6.1c-0.7-1.3-2-3-4.5-3c-1.5,0-2.3,0.3-3.6,0.7L26.9,43.4z M30.5,28.1
		c0.4,1.4,1.7,4.5,6.5,6c4.8-1.5,6.1-4.5,6.5-6l-2.2-0.8c-1.3,0.6-2.7,0.9-4.2,0.9s-2.9-0.3-4.2-0.9L30.5,28.1z M27.9,14
		c-0.2,0-0.9,0.6-0.9,1.5s0.7,1.5,0.9,1.5c0.6,0,1.1,0.5,1.1,1.1c0,4.4,3.6,8,8,8s8-3.6,8-8c0-0.6,0.5-1.1,1.1-1.1
		c0.2,0,0.9-0.6,0.9-1.5S46.3,14,46.1,14c-1.8,0-3.6-1.6-4.5-2.5c-1-1-1.9-2.2-2.6-3.5C36.7,10.6,32.7,14,27.9,14L27.9,14z M37,23.9
		c-1.1,0-2.2-0.4-3-1.3c-0.4-0.4-0.4-1.1,0-1.5c0.4-0.4,1.1-0.4,1.5,0c0.8,0.8,2.2,0.8,3,0c0.4-0.4,1.1-0.4,1.5,0
		c0.4,0.4,0.4,1.1,0,1.5C39.2,23.5,38.1,23.9,37,23.9z M40.5,17.4c-0.7,0-1.5-0.3-2-0.8c-0.4-0.4-0.4-1.1,0-1.5
		c0.4-0.4,1.1-0.4,1.5,0c0.1,0.1,0.3,0.2,0.5,0.2c0.2,0,0.3-0.1,0.5-0.2c0.4-0.4,1.1-0.4,1.5,0c0.4,0.4,0.4,1.1,0,1.5
		C42,17.1,41.2,17.4,40.5,17.4z M33.5,17.4c-0.7,0-1.5-0.3-2-0.8c-0.4-0.4-0.4-1.1,0-1.5c0.4-0.4,1.1-0.4,1.5,0
		c0.1,0.1,0.3,0.2,0.5,0.2c0.2,0,0.3-0.1,0.5-0.2c0.4-0.4,1.1-0.4,1.5,0c0.4,0.4,0.4,1.1,0,1.5C35,17.1,34.2,17.4,33.5,17.4
		L33.5,17.4z"/>
</g>
</svg>
