<?xml version="1.0" encoding="utf-8"?>
<!-- Generator: Adobe Illustrator 22.1.0, SVG Export Plug-In . SVG Version: 6.00 Build 0)  -->
<svg version="1.1" id="_x31_px" xmlns="http://www.w3.org/2000/svg" xmlns:xlink="http://www.w3.org/1999/xlink" x="0px" y="0px"
	 viewBox="0 0 74 74" style="enable-background:new 0 0 74 74;" xml:space="preserve">
<style type="text/css">
	.st0{fill:#EEE7E3;}
</style>
<path class="st0" d="M69.4,24.7H41.6c-0.9,0-1.5-0.7-1.5-1.5s0.7-1.5,1.5-1.5h27.8c0.9,0,1.5,0.7,1.5,1.5S70.2,24.7,69.4,24.7z"/>
<path class="st0" d="M66.3,24.7c-0.9,0-1.5-0.7-1.5-1.5V12.3c0-5.1-4.2-9.3-9.3-9.3s-9.3,4.2-9.3,9.3v10.8c0,0.9-0.7,1.5-1.5,1.5
	c-0.9,0-1.5-0.7-1.5-1.5V12.3C43.2,5.5,48.7,0,55.5,0s12.3,5.5,12.3,12.3v10.8C67.8,24,67.1,24.7,66.3,24.7z"/>
<path class="st0" d="M55.5,33.9c-2.5,0-4.6-2.1-4.6-4.6s2.1-4.6,4.6-4.6s4.6,2.1,4.6,4.6S58,33.9,55.5,33.9z M55.5,27.8
	c-0.8,0-1.5,0.7-1.5,1.5s0.7,1.5,1.5,1.5s1.5-0.7,1.5-1.5S56.3,27.8,55.5,27.8z"/>
<path class="st0" d="M4.6,55.5c-0.9,0-1.5-0.7-1.5-1.5V7.7C3.1,3.5,6.5,0,10.8,0h27.8c0.9,0,1.5,0.7,1.5,1.5s-0.7,1.5-1.5,1.5H10.8
	c-2.5,0-4.6,2.1-4.6,4.6V54C6.2,54.8,5.5,55.5,4.6,55.5z"/>
<path class="st0" d="M23.1,61.7H10.8c-4.3,0-7.7-3.5-7.7-7.7s3.5-7.7,7.7-7.7h44.7v-4.6c0-0.9,0.7-1.5,1.5-1.5
	c0.9,0,1.5,0.7,1.5,1.5v6.2c0,0.9-0.7,1.5-1.5,1.5H10.8c-2.5,0-4.6,2.1-4.6,4.6s2.1,4.6,4.6,4.6h12.3c0.9,0,1.5,0.7,1.5,1.5
	S24,61.7,23.1,61.7z"/>
<path class="st0" d="M57,61.7H38.5c-0.9,0-1.5-0.7-1.5-1.5s0.7-1.5,1.5-1.5h17V47.8c0-0.9,0.7-1.5,1.5-1.5c0.9,0,1.5,0.7,1.5,1.5
	v12.3C58.6,61,57.9,61.7,57,61.7z"/>
<path class="st0" d="M38.5,74c-0.3,0-0.7-0.1-1-0.3l-6.7-5.4l-6.7,5.4c-0.5,0.4-1.1,0.4-1.6,0.2c-0.5-0.3-0.9-0.8-0.9-1.4V54
	c0-0.9,0.7-1.5,1.5-1.5s1.5,0.7,1.5,1.5v15.3l5.2-4.2c0.6-0.5,1.4-0.5,1.9,0l5.2,4.2V54c0-0.9,0.7-1.5,1.5-1.5
	c0.9,0,1.5,0.7,1.5,1.5v18.5c0,0.6-0.3,1.1-0.9,1.4C39,74,38.8,74,38.5,74z"/>
<path class="st0" d="M44.7,55.5H17c-0.9,0-1.5-0.7-1.5-1.5c0-0.9,0.7-1.5,1.5-1.5h27.7c0.9,0,1.5,0.7,1.5,1.5
	C46.3,54.8,45.6,55.5,44.7,55.5z"/>
</svg>
