<?xml version="1.0" encoding="utf-8"?>
<!-- Generator: Adobe Illustrator 22.1.0, SVG Export Plug-In . SVG Version: 6.00 Build 0)  -->
<svg version="1.1" id="Layer_1" xmlns="http://www.w3.org/2000/svg" xmlns:xlink="http://www.w3.org/1999/xlink" x="0px" y="0px"
	 viewBox="0 0 78 78" style="enable-background:new 0 0 78 78;" xml:space="preserve">
<style type="text/css">
	.st0{fill:#EEE7E3;}
</style>
<g id="Outline">
	<path class="st0" d="M11,28.1v0.3c0,5.2,3.9,9.6,9.1,10.3v39.1h2.6v-15c0.2,0.1,0.4,0.2,0.6,0.3c0,0,13.3,5.5,13.3,5.5
		c0,0,9.3,2.6,9.4,2.6c0.4,0,0.9-0.2,1.1-0.6l3.3-5.1c0-0.1,0.1-0.1,0.1-0.2c0.3-0.7,0-1.4-0.7-1.7l-4.5-2l1.7-2.6
		c0,0,0.1-0.1,0.1-0.1c0.3-0.6,0.1-1.4-0.6-1.7L44,55.9c-0.4-0.2-1-0.2-1.4,0.1l-4.5,3.4L30.5,55l0.7-7.3c0,0,0,0,0,0l1.1-11.5h5.2
		l2.6,2.1c0,0,0.1,0,0.1,0.1c1.7,1.2,2.6,3.2,2.2,5.3c-0.3,1.5-1.1,2.8-2.3,3.6l-1.1,0.7c-0.3,0.2-0.5,0.5-0.6,0.9
		c-0.1,0.7,0.4,1.4,1.1,1.5l5.4,0.9c0.7,0.1,1.3,0.3,1.9,0.5l1.8,4.4c0.2,0.5,0.7,0.8,1.2,0.8h2.6c0.3,0,0.5-0.1,0.8-0.2
		c1.2,1.9,1.8,4.1,1.8,6.4c0,3.2-1.2,6.2-3.4,8.5c-2.2,2.3-5.2,3.5-8.3,3.5c-0.7,0-1.3,0.6-1.3,1.3v1.3l2.9,0
		c3.4-0.3,6.3-1.8,8.6-4.3c2.6-2.7,4.1-6.4,4.1-10.3c0-1.3-0.2-2.6-0.5-3.8c1.1-0.5,1.8-1.5,1.8-2.7v-4.8c0-0.3-0.1-0.6-0.3-0.8
		l-5.2-6.5c-0.2-0.3-0.6-0.5-1-0.5h-7.5c0.4-3-0.8-6-3.3-7.7l-0.9-0.8v-3.1c0-2.9-2.4-5.3-5.3-5.3h-2.5v-2.3l4.5,0.8
		c0.6,0.1,1.3-0.3,1.5-0.9l1.1-3.4l2.5-1.6c0.4-0.3,0.7-0.8,0.5-1.4l-0.8-3.7l0.5-1.4c0,0,0,0,0,0c0.9-2.7,0.6-5.5-0.6-8
		c0-0.1-2.8-5.6-9.8-5.3c-6.9,0.1-12.4,5.7-12.4,12.5c0,2.3-1.1,4.5-3,5.9l-1.6,1.1C12.6,21.4,11,24.6,11,28.1z M43,48.3
		c0.5-0.5,0.9-1.1,1.2-1.7c0,0,7.7,0,7.7,0l4.5,5.7v4.4c0,0.1,0,0.2-0.1,0.3c-0.6-1.3-1.5-2.6-2.5-3.7v-2.7h-2.6v3.9h-0.4l-2.3-5.7
		l-1.1,0.5c-0.6-0.2-1.3-0.4-2-0.5L43,48.3z M33.1,22.2v-8.3c3.1-0.9,5.7-2.8,7.6-5.4c0.2,1.3,0.1,2.6-0.3,3.8l-0.6,1.8
		c-0.1,0.2-0.1,0.5,0,0.7l0.7,3.2l-2.1,1.4c-0.2,0.2-0.4,0.4-0.5,0.7l-0.9,2.8L33.1,22.2z M35.5,29.7c1.5,0,2.7,1.2,2.7,2.7v0.9
		l-4.5-3.7H35.5L35.5,29.7z M34.4,33.6h-2c-0.1-0.5-0.3-1.1-0.5-1.6c0.1-0.1,0.1-0.2,0.2-0.3L34.4,33.6z M24.3,60.7
		c-1-0.4-1.6-1.3-1.6-2.4V38.8c2.8-0.3,5.3-1.6,7.3-3.7l-1.2,12.4c0,0,0,0,0,0l-0.8,8.1c-0.1,0.5,0.2,1,0.6,1.3l9.1,5.2
		c0.4,0.3,1,0.2,1.4-0.1l4.6-3.4l0.6,0.3l-1.8,2.7c0,0.1-0.1,0.1-0.1,0.2c-0.3,0.7,0,1.4,0.7,1.7l4.5,2l-2,3.1l-8.1-2.3L24.3,60.7
		L24.3,60.7z M13.6,28.1c0-2.6,1.3-5.1,3.4-6.6l1.6-1.1c2.6-1.8,4.1-4.8,4.1-8c0-5.5,4.4-9.9,9.9-9.9c0,0,0,0,0.1,0
		c4.3-0.2,6.2,2,6.9,3c-1.6,3.2-4.6,5.5-8,6.2c-0.6,0.1-1,0.7-1,1.3v14.3c0,5-4.1,9.1-9.1,9.1c-4.3,0-7.8-3.5-7.8-7.8V28.1z"/>
</g>
</svg>
