<?xml version="1.0" encoding="utf-8"?>
<!-- Generator: Adobe Illustrator 22.1.0, SVG Export Plug-In . SVG Version: 6.00 Build 0)  -->
<svg version="1.1" id="Capa_1" xmlns="http://www.w3.org/2000/svg" xmlns:xlink="http://www.w3.org/1999/xlink" x="0px" y="0px"
	 viewBox="0 0 74 74" style="enable-background:new 0 0 74 74;" xml:space="preserve">
<style type="text/css">
	.st0{fill:#EEE7E3;}
</style>
<g>
	<g>
		<path class="st0" d="M73.7,67l-5.1-14.8c2.4-4.9,3.7-10.4,3.7-16c0-9.5-3.7-18.6-10.4-25.4C55.3,4,46.3,0.2,36.8,0
			c-5-0.1-9.8,0.8-14.4,2.7c-4.4,1.8-8.4,4.5-11.8,7.9c-3.4,3.4-6,7.3-7.9,11.8C0.8,26.9-0.1,31.8,0,36.8C0.2,46.3,4,55.3,10.8,62
			c6.8,6.7,15.8,10.4,25.3,10.4c0,0,0,0,0.1,0c5.5,0,11-1.3,16-3.7L67,73.7c0.6,0.2,1.2,0.3,1.7,0.3c1.4,0,2.7-0.5,3.7-1.5
			C73.9,71,74.4,68.9,73.7,67z M69.3,69.3c-0.1,0.1-0.5,0.4-0.9,0.2l-15.7-5.4c-0.2-0.1-0.5-0.1-0.7-0.1c-0.4,0-0.7,0.1-1,0.3
			c-4.5,2.4-9.6,3.7-14.8,3.7C19,68,4.7,54,4.4,36.7c-0.1-8.7,3.2-16.9,9.3-23c6.1-6.1,14.3-9.4,23-9.3C54,4.7,68,19,68,36.2
			c0,5.2-1.3,10.3-3.7,14.8c-0.3,0.5-0.3,1.2-0.1,1.7l5.4,15.7C69.7,68.9,69.5,69.2,69.3,69.3z"/>
	</g>
</g>
<g>
	<g>
		<path class="st0" d="M35.8,52.4c-1.1,0-2.2,1-2.2,2.2c0.1,1.2,1,2.2,2.2,2.2c1.1,0,2.2-1,2.2-2.2C38,53.4,37.1,52.4,35.8,52.4z"/>
	</g>
</g>
<g>
	<g>
		<path class="st0" d="M35.8,18.5c-6,0-10.9,4.9-10.9,10.9c0,1.2,1,2.2,2.2,2.2s2.2-1,2.2-2.2c0-3.6,2.9-6.5,6.5-6.5
			c3.6,0,6.5,2.9,6.5,6.5s-2.9,6.5-6.5,6.5c-1.2,0-2.2,1-2.2,2.2V47c0,1.2,1,2.2,2.2,2.2c1.2,0,2.2-1,2.2-2.2v-7
			c5-1,8.7-5.4,8.7-10.7C46.7,23.3,41.8,18.5,35.8,18.5z"/>
	</g>
</g>
</svg>
