<?xml version="1.0" encoding="utf-8"?>
<!-- Generator: Adobe Illustrator 22.1.0, SVG Export Plug-In . SVG Version: 6.00 Build 0)  -->
<svg version="1.1" id="Capa_1" xmlns="http://www.w3.org/2000/svg" xmlns:xlink="http://www.w3.org/1999/xlink" x="0px" y="0px"
	 viewBox="0 0 74 74" style="enable-background:new 0 0 74 74;" xml:space="preserve">
<style type="text/css">
	.st0{fill:#EEE7E3;}
</style>
<g id="XMLID_204_">
	<path id="XMLID_532_" class="st0" d="M66.2,57.3V8.4c0-4.6-3.8-8.4-8.4-8.4H8.4C3.8,0,0,3.8,0,8.4c0,0.8,0.6,1.4,1.4,1.4h12.4v55.8
		c0,4.6,3.8,8.4,8.4,8.4h43.4c4.6,0,8.4-3.8,8.4-8.4C74,61.2,70.5,57.6,66.2,57.3z M3.1,6.9c0.6-2.3,2.8-4,5.3-4s4.7,1.7,5.3,4H3.1z
		 M22.3,71.1c-3,0-5.5-2.5-5.5-5.5V8.4c0-2.1-0.8-4-2.1-5.5h43.1c3,0,5.5,2.5,5.5,5.5v48.9h-41c-0.8,0-1.4,0.6-1.4,1.4
		s0.6,1.4,1.4,1.4c3,0,5.5,2.5,5.5,5.5C27.8,68.6,25.3,71.1,22.3,71.1L22.3,71.1z M65.6,71.1h-37c1.3-1.5,2.1-3.4,2.1-5.5
		s-0.8-4-2.1-5.5h37c3,0,5.5,2.5,5.5,5.5C71.1,68.6,68.6,71.1,65.6,71.1z"/>
	<path id="XMLID_541_" class="st0" d="M39.5,18.7c0.3,0.3,0.8,0.3,1.2,0l4.6-4.6c1.4-1.4,1.4-3.8,0-5.2c-1.4-1.4-3.8-1.4-5.2,0
		c-1.4-1.4-3.8-1.4-5.2,0s-1.4,3.8,0,5.2L39.5,18.7z"/>
	<path id="XMLID_542_" class="st0" d="M26.1,27.4h3.6c0.8,0,1.4-0.6,1.4-1.4s-0.6-1.4-1.4-1.4h-3.6c-0.8,0-1.4,0.6-1.4,1.4
		S25.3,27.4,26.1,27.4z"/>
	<path id="XMLID_543_" class="st0" d="M26.1,33.7h3.6c0.8,0,1.4-0.6,1.4-1.4s-0.6-1.4-1.4-1.4h-3.6c-0.8,0-1.4,0.6-1.4,1.4
		S25.3,33.7,26.1,33.7z"/>
	<path id="XMLID_544_" class="st0" d="M26.1,40h3.6c0.8,0,1.4-0.6,1.4-1.4s-0.6-1.4-1.4-1.4h-3.6c-0.8,0-1.4,0.6-1.4,1.4
		S25.3,40,26.1,40z"/>
	<path id="XMLID_545_" class="st0" d="M26.1,52.6h3.6c0.8,0,1.4-0.6,1.4-1.4s-0.6-1.4-1.4-1.4h-3.6c-0.8,0-1.4,0.6-1.4,1.4
		S25.3,52.6,26.1,52.6z"/>
	<path id="XMLID_546_" class="st0" d="M26.1,46.3h3.6c0.8,0,1.4-0.6,1.4-1.4s-0.6-1.4-1.4-1.4h-3.6c-0.8,0-1.4,0.6-1.4,1.4
		S25.3,46.3,26.1,46.3z"/>
	<path id="XMLID_547_" class="st0" d="M34.3,25.9c0,0.8,0.6,1.4,1.4,1.4H54c0.8,0,1.4-0.6,1.4-1.4s-0.6-1.4-1.4-1.4H35.8
		C35,24.5,34.3,25.1,34.3,25.9L34.3,25.9z"/>
	<path id="XMLID_548_" class="st0" d="M54,30.8H35.8c-0.8,0-1.4,0.6-1.4,1.4s0.6,1.4,1.4,1.4H54c0.8,0,1.4-0.6,1.4-1.4
		S54.8,30.8,54,30.8z"/>
	<path id="XMLID_549_" class="st0" d="M54,37.1H35.8c-0.8,0-1.4,0.6-1.4,1.4S35,40,35.8,40H54c0.8,0,1.4-0.6,1.4-1.4
		S54.8,37.1,54,37.1z"/>
	<path id="XMLID_550_" class="st0" d="M54,49.8H35.8c-0.8,0-1.4,0.6-1.4,1.4s0.6,1.4,1.4,1.4H54c0.8,0,1.4-0.6,1.4-1.4
		S54.8,49.8,54,49.8z"/>
	<path id="XMLID_948_" class="st0" d="M54,43.4H35.8c-0.8,0-1.4,0.6-1.4,1.4s0.6,1.4,1.4,1.4H54c0.8,0,1.4-0.6,1.4-1.4
		S54.8,43.4,54,43.4z"/>
</g>
</svg>
