<?xml version="1.0" encoding="utf-8"?>
<!-- Generator: Adobe Illustrator 22.1.0, SVG Export Plug-In . SVG Version: 6.00 Build 0)  -->
<svg version="1.1" id="Bold" xmlns="http://www.w3.org/2000/svg" xmlns:xlink="http://www.w3.org/1999/xlink" x="0px" y="0px"
	 viewBox="0 0 46 46" style="enable-background:new 0 0 46 46;" xml:space="preserve">
<style type="text/css">
	.st0{fill:#CDB09C;}
</style>
<path class="st0" d="M23,11.2c-6.5,0-11.8,5.3-11.8,11.8c0,6.5,5.3,11.8,11.8,11.8c6.5,0,11.8-5.3,11.8-11.8
	C34.8,16.5,29.5,11.2,23,11.2L23,11.2z M23,30.7c-4.2,0-7.7-3.4-7.7-7.7s3.4-7.7,7.7-7.7s7.7,3.4,7.7,7.7
	C30.7,27.2,27.2,30.7,23,30.7z"/>
<path class="st0" d="M32.5,0.2c-4.2-0.2-14.7-0.2-19,0c-3.7,0.2-7,1.1-9.7,3.7C-0.5,8.3,0,14.3,0,23C0,32-0.5,37.8,3.9,42.1
	C8.3,46.6,14.4,46,23,46c8.9,0,11.9,0,15.1-1.2c4.3-1.7,7.5-5.5,7.8-12.3c0.2-4.2,0.2-14.7,0-19C45.5,5.5,41.1,0.6,32.5,0.2
	L32.5,0.2z M39.2,39.2c-2.9,2.9-6.9,2.6-16.2,2.6c-9.6,0-13.4,0.1-16.2-2.7C3.5,36,4.1,30.8,4.1,23C4.1,12.4,3,4.8,13.6,4.2
	c2.4-0.1,3.2-0.1,9.3-0.1L23,4.2c10.2,0,18.2-1.1,18.7,9.6c0.1,2.4,0.1,3.2,0.1,9.3C41.8,32.5,42,36.3,39.2,39.2L39.2,39.2z"/>
<circle class="st0" cx="35.3" cy="10.7" r="2.8"/>
</svg>
