<?xml version="1.0" encoding="utf-8"?>
<!-- Generator: Adobe Illustrator 22.1.0, SVG Export Plug-In . SVG Version: 6.00 Build 0)  -->
<svg version="1.1" id="Layer_1" xmlns="http://www.w3.org/2000/svg" xmlns:xlink="http://www.w3.org/1999/xlink" x="0px" y="0px"
	 viewBox="0 0 868 417" style="enable-background:new 0 0 868 417;" xml:space="preserve">
<style type="text/css">
	.st0{fill:#F8F5F2;}
</style>
<path class="st0" d="M341.6,409.6c-46.1,0-127.3-20.8-158.1-56.1c-7-8-11.3-16.4-12.9-25.1c-0.4-0.5-0.8-0.9-1.2-1.4
	c-20.7-24.8-62.6-22.8-92.1-13.6c-24.9,7.8-35.3,1.2-43.7-4.1c-3.3-2.1-6.2-3.9-9.6-4.7c-10.2-2.4-16.1,13.6-16.1,13.8
	c-0.7,2.1-3.1,3.2-5.2,2.5c-2.1-0.7-3.2-3.1-2.5-5.2c0.3-0.9,8.4-23,25.6-19c4.8,1.1,8.5,3.5,12.1,5.7c7.7,4.9,15.7,9.9,37,3.2
	c30.9-9.7,70.9-11.4,95.2,10.3c0.1-1.5,0.4-3,0.6-4.4c11.6-59.9,109.3-49.6,161.9-44.1c6.2,0.6,11.5,1.2,16,1.6
	c41.2,3.5,64.5-14.5,64.7-14.7c0.1-0.1,0.3-0.2,0.4-0.3c6.2-3.7,14.4-9.3,23.1-15.2c17-11.6,36.2-24.7,50.8-31
	c18.7-8,33.9-3.2,40.6,5c6.1,7.5,6,17.4-0.4,26.6c-2.2,3.2-4.3,6.2-6.4,9c13.5-11.2,24.6-21.9,27.1-27.4c5.4-12,13.2-24.4,18.4-32.7
	c1.2-2,2.4-3.8,3.3-5.3c3.6-6,7.9-15.3,11.7-23.4c1.9-4.1,3.7-8,5.3-11.4c1.9-3.9,19.2-38.1,39.8-43.8c6-1.7,11.7-0.8,16.9,2.5
	c20.7,13.3-3.3,61.3-26.6,107.6c-4,8-7.8,15.6-11.3,22.8c-16.1,33.4-39.6,57.9-60.6,74.6c5.9-0.5,12.3-1.4,19.3-3.2
	c10.7-2.7,33.2-17.6,57-33.4c46.6-30.8,78.2-50.6,92.8-44.6c2.6,1.1,5.9,3.5,7.1,9c5.4,26-19.7,41.2-46.4,57.4
	c-11.4,6.9-23.2,14.1-33.7,22.6c-39.7,31.9-67.2,47.3-92.1,51.4c-15.8,2.6-33.9,10.4-51.5,18c-11.2,4.8-21.7,9.3-31.2,12.4
	c-16.7,5.3-39.9,5.7-69.3,6.3c-14.5,0.3-31,0.6-48.7,1.6C346.5,409.6,344.1,409.6,341.6,409.6z M208.3,364.1
	c38.5,25.5,104.2,39.2,140.1,37.3c17.8-1,34.4-1.3,49-1.6c28.8-0.6,51.5-1,67-5.9c9.1-2.9,19.5-7.4,30.5-12.1
	c18-7.8,36.6-15.8,53.4-18.5c23.4-3.8,49.8-18.7,88.3-49.7c10.9-8.8,23-16.1,34.6-23.2c25.2-15.3,46.9-28.5,42.6-48.8
	c-0.5-2.2-1.4-2.8-2.2-3.2c-11.7-4.8-54.2,23.3-85.2,43.9c-25.5,16.9-47.5,31.5-59.5,34.5c-12.8,3.2-23.4,3.8-32.7,3.9
	c-10.7,7.6-20,12.9-26.4,16.3c-17.5,9.2-23.3,7.7-26.2,5.7c-2.2-1.4-3.3-3.9-3-6.6c0.6-6.4,8.6-14.7,18.4-19
	c10.2-4.4,19.9-4.4,31.1-4.5c1.2,0,2.3,0,3.5,0c22.1-16,49.6-41.7,67.4-78.7c3.5-7.3,7.3-14.9,11.4-22.9
	c18.6-37.1,44-87.8,29.4-97.2c-3.2-2.1-6.6-2.6-10.4-1.5c-14,3.9-28.8,27.6-34.7,39.6c-1.6,3.3-3.4,7.1-5.2,11.2
	c-4,8.8-8.2,17.8-12.1,24.2c-0.9,1.5-2.1,3.4-3.3,5.4c-5.3,8.5-12.7,20.2-17.8,31.7c-6.1,13.4-46.4,45-69.7,60.4
	c-2.1,1.4-4.2,2.8-6.3,4c-2,1.2-3.8,2.3-5.3,3c-1.9,1.1-3.8,2.1-5.8,3.2c-5.8,3.2-11.9,6.4-18.8,11c-23.8,15.6-50.6,25.2-87.7,38.5
	c-11.3,4.1-24.2,8.7-37.9,13.8C265.6,380.4,231.1,376.5,208.3,364.1z M178.3,325.1c0.5,0.7,1.1,1.3,1.6,2
	c20.2,24.8,47.8,58.9,141.7,23.6c13.8-5.2,26.7-9.8,38-13.9c36.6-13.1,63-22.6,86-37.7c7.2-4.7,13.4-8.1,19.4-11.3
	c1.9-1,3.8-2.1,5.7-3.1c0,0,0,0,0.1,0c15-8.3,28.4-17.8,50.5-49.9c4.2-6.1,4.5-12.3,0.8-16.8c-4.8-5.9-16.3-9-31.2-2.7
	c-13.9,5.9-32.8,18.8-49.4,30.2c-8.7,5.9-16.9,11.5-23.3,15.4c-2.8,2.1-27.4,19.8-70.2,16.2c-4.6-0.4-10-1-16.2-1.6
	c-50-5.2-142.9-15-153.1,37.6C177.9,317.2,177.8,321.2,178.3,325.1z M486.7,336c1.6,0,6.5-0.6,17.2-6.2c4.1-2.1,9.4-5.1,15.5-9
	c-7,0.2-13.1,1-19.3,3.7C492.5,327.8,487.7,333.5,486.7,336z"/>
<path class="st0" d="M293,271.8c-1.1,0-2.3-0.5-3.1-1.4c-0.9-1-21.3-25.3-26.4-43.6l-4.6-16.5c-5.9-5.6-13.5-17.8-5.6-29.1
	c4.3-6.1,9.8-7.1,13.5-7.2c6.2-0.3,13.2,3.6,16.4,8.9c2.5,4.3,3.2,9.1,2,13.7c-1.2,4.6-4.3,8.5-8.7,11c-1.9,1.1-4.4,0.4-5.5-1.5
	c-1.1-1.9-0.4-4.4,1.5-5.5c2.5-1.5,4.3-3.6,4.9-6.1c0.7-2.5,0.3-5.1-1.1-7.5c-1.4-2.5-5.6-5.1-9.1-4.9c-2.9,0.1-5.1,0.8-7.2,3.8
	c-6.3,8.9,4.7,18.8,5.2,19.2c0.6,0.5,1,1.2,1.2,2l4.9,17.7c4.6,16.6,24.6,40.3,24.8,40.5c1.4,1.7,1.2,4.3-0.5,5.7
	C294.9,271.5,293.9,271.8,293,271.8z"/>
<path class="st0" d="M267.8,180.9c-1.1,0-2.2-0.4-3-1.3c-0.7-0.7-16.1-18.1-6-32c8.3-11.4,21.6-10.1,28.4-5.5c3,2,8.3,7.4,9,14.8
	c0.4,4-0.5,10.1-7,16.4c-1.6,1.6-4.2,1.5-5.7-0.1c-1.6-1.6-1.5-4.2,0.1-5.7c3.3-3.3,4.9-6.6,4.6-9.9c-0.4-4-3.4-7.5-5.4-8.8
	c-3.2-2.2-11.7-4.2-17.3,3.5c-6.3,8.6,5.3,21.7,5.4,21.8c1.5,1.7,1.4,4.2-0.3,5.7C269.8,180.6,268.8,180.9,267.8,180.9z"/>
<path class="st0" d="M288.9,153c-1.9,0-3.6-1.4-4-3.3c-0.4-2.2,1.1-4.3,3.3-4.7c4-0.7,6.8-2.2,8.1-4.4c2-3.2,0.8-7.3,0.8-7.4
	c-0.5-1.6-3.2-9-12.6-7.3c-2.8,0.5-4.8,1.7-6.2,3.6c-3.1,4.5-1.6,11.7-1.6,11.8c0.5,2.2-0.9,4.3-3.1,4.8c-2.2,0.5-4.3-0.9-4.8-3.1
	c-0.1-0.4-2.2-10.6,2.8-18c2.6-3.8,6.4-6.2,11.5-7.1c13.7-2.4,20.2,7.5,21.7,13.1c0.2,0.6,2.2,7.5-1.7,13.8
	c-2.6,4.3-7.3,7.1-13.7,8.2C289.4,153,289.2,153,288.9,153z"/>
<path class="st0" d="M305.8,138.4c-1.7,0-3.4-0.2-5.1-0.5c-2.2-0.5-3.6-2.6-3.1-4.8c0.5-2.2,2.6-3.6,4.8-3.1
	c4.4,0.9,8.2,0.2,11.5-2.2c4.1-3,6-7.7,6.3-10c0.3-2.5-0.6-9-4.7-12.9c-3.1-3-7.6-4-13.4-3.2c-3.7,0.5-6.5,2-8.4,4.6
	c-4.2,5.6-3.1,14.5-3,14.6c0.3,2.2-1.2,4.3-3.4,4.6c-2.2,0.3-4.3-1.2-4.6-3.4c-0.1-0.5-1.7-12.3,4.6-20.6c3.2-4.3,7.8-6.9,13.7-7.8
	c10.4-1.5,16.7,2.1,20.1,5.4c6.5,6.3,7.5,15.5,7.1,19.6c-0.5,4.7-3.6,11.3-9.5,15.7C314.8,137,310.5,138.4,305.8,138.4z"/>
<path class="st0" d="M444,234.2c-1.7,0-3.2-1-3.8-2.7c-16.1-45.7-40.5-82.6-72.6-109.8c-2.1-1.8-3.1-2.7-3.8-3.5
	c-1.4-1.8-1.6-4.4-1.9-9.5c-1-17.8-4-36.9-27.1-36.9c-25.1,0-26.1,23.6-26.2,24.6c-0.1,2.2-1.9,4-4.2,3.9c-2.2-0.1-4-1.9-3.9-4.1
	c0.3-11.2,7.8-32.5,34.3-32.5c32.7,0,34.4,31.2,35.1,44.5c0.1,1.9,0.2,4.2,0.4,5.2c0.5,0.4,1.4,1.2,2.4,2
	c33.2,28.1,58.4,66.2,75,113.3c0.7,2.1-0.4,4.4-2.5,5.2C444.9,234.1,444.4,234.2,444,234.2z"/>
<path class="st0" d="M372.3,226.5c-0.4,0-0.8-0.1-1.2-0.2c-53.5-16.4-51.9-58.6-51.9-59.1c0.1-2.2,2-3.9,4.3-3.8
	c2.2,0.1,3.9,2,3.8,4.2c-0.1,1.6-1,36.5,46.2,50.9c2.1,0.7,3.3,2.9,2.7,5.1C375.7,225.3,374.1,226.5,372.3,226.5z"/>
<path class="st0" d="M444,239.8c-1.6,0-3.1-1-3.8-2.6c-1-2.5-24-60.9-23.3-116.5c0.4-30.1,12.2-48.1,17.2-54.4
	c-4.5-7.3-15.7-28-9.8-45C427.4,12,435,5.5,446.7,1.8c22.2-7,35.8,7.8,39.9,16.5c0.9,2,0.1,4.4-2,5.4c-2,0.9-4.4,0.1-5.4-2
	C478.9,21,470,3,449.1,9.5c-9.2,2.9-14.9,7.6-17.2,14.4c-5.7,16.7,10.4,40.2,10.5,40.4c1.1,1.6,0.9,3.8-0.4,5.1
	c-0.2,0.2-16.6,17.5-17,51.3c-0.7,54,22.5,112.8,22.7,113.4c0.8,2.1-0.2,4.4-2.3,5.3C445,239.7,444.5,239.8,444,239.8z"/>
<path class="st0" d="M494.3,58c-4.7,0-10.4-1.2-14.9-5.8c-3.1-3.1-6.1-6.8-6.9-14.1c-0.6-6.1,1.3-12,5.5-16.6
	c4.2-4.7,10.1-7.4,16.2-7.4c10.9,0,19,8.2,21.4,16.2c0.6,2.1-0.6,4.4-2.7,5c-2.1,0.6-4.4-0.6-5-2.7c-1.5-5.1-6.8-10.4-13.6-10.4
	c-3.7,0-7.5,1.8-10.1,4.7c-2.6,2.9-3.8,6.5-3.4,10.3c0.5,4.7,2.2,6.8,4.6,9.3c5.5,5.7,15.1,2.6,15.2,2.5c2.1-0.7,4.4,0.4,5.1,2.5
	c0.7,2.1-0.4,4.4-2.5,5.1C502.7,56.8,499.1,58,494.3,58z"/>
<path class="st0" d="M516.3,64.4c-6.4,0-14.7-3.1-18-14.7c0-0.1,0-0.2-0.1-0.3c-1-5.3,0.1-10.5,3.3-14.6c3.3-4.2,8.5-7.1,13.6-7.4
	c4-0.2,10.3,1.2,14.8,6.1c2.7,2.9,5.6,8,4.5,15.9c-0.3,2.2-2.3,3.8-4.6,3.5c-2.2-0.3-3.8-2.3-3.5-4.6c0.5-3.9-0.3-7-2.4-9.3
	c-2.4-2.6-6.1-3.6-8.4-3.5c-2.8,0.2-5.8,1.8-7.7,4.2c-1.7,2.3-2.3,4.9-1.8,7.9c3,10.6,11.7,8.6,12.7,8.3c2.2-0.6,4.4,0.7,5,2.9
	c0.6,2.2-0.7,4.4-2.9,5C519.6,64.2,518,64.4,516.3,64.4z"/>
<path class="st0" d="M534.8,84.1c-0.1,0-0.3,0-0.4,0c-10.6-1-17.1-8.7-17.1-20.2c0-8.3,7.2-17.5,18.9-18c6.7-0.3,12.7,2.4,16.5,7.4
	c3.3,4.4,6.3,12.3,2,25.5c-0.7,2.1-3,3.3-5.1,2.6c-2.1-0.7-3.3-3-2.6-5.1c2.5-7.7,2.3-14.1-0.8-18.1c-2.2-2.8-5.7-4.4-9.7-4.2
	c-7.9,0.3-11.1,6.7-11.1,10c0,7.3,3.4,11.6,9.7,12.2c2.2,0.2,3.9,2.2,3.7,4.4C538.6,82.5,536.8,84.1,534.8,84.1z"/>
<path class="st0" d="M567.8,199.3c-0.4,0-0.9-0.1-1.3-0.2c-2.1-0.7-3.2-3-2.5-5.1c14.7-42.6,4.3-83.1,2.4-87c-1.9-3.4-0.3-6.7,1-9.2
	c1.2-2.4,2.5-4.9,2.3-8.7c-0.3-5.3-4.1-9-9.4-9.3c-2.4-0.1-4.9,0.8-6.8,2.5c-1.8,1.6-2.8,3.8-2.9,6.2c-0.3,7.1,5.2,9.3,5.8,9.6
	c2.1,0.8,3.2,3.1,2.4,5.2c-0.7,2.1-3,3.2-5.1,2.5c-4.1-1.4-11.6-6.8-11.2-17.5c0.2-4.5,2.1-8.8,5.6-11.9c3.5-3.2,8.1-4.8,12.7-4.6
	c9.3,0.5,16.4,7.6,17,16.9c0.3,5.9-1.8,10.1-3.2,12.8c-0.3,0.7-0.8,1.6-1,2.1c2.4,5.5,13.6,47.6-2.1,93.2
	C571,198.2,569.4,199.3,567.8,199.3z"/>
<path class="st0" d="M501.8,161.7c-0.7,0-1.5-0.2-2.1-0.6c-1.9-1.2-2.5-3.7-1.3-5.6c14.1-22.6,9.3-53.2,9.2-53.5
	c-0.4-2.2,1.1-4.3,3.3-4.6c2.2-0.4,4.3,1.1,4.6,3.3c0.2,1.4,5.3,33.9-10.4,59.1C504.5,161.1,503.2,161.7,501.8,161.7z"/>
<path class="st0" d="M485.9,271.6c-5.1,0-10.1-2-13.8-8.1c-4.4-7.1-5.9-14.1-4.5-20.1c1.1-4.6,4-8.5,8.5-11.2
	c8.9-5.4,18.6-10.3,19.1-10.5c0,0,0.1,0,0.1,0c0.8-0.4,20.8-9.5,31.3,2.9c2.6,3,3.5,7,2.6,11.3c-2.4,12.1-18.4,26.3-26,30.2
	C499.4,268.1,492.6,271.6,485.9,271.6z M498.7,229.1c-0.8,0.4-10.1,5.1-18.4,10.1c-2.6,1.6-4.2,3.6-4.8,6.2
	c-0.9,3.8,0.3,8.7,3.5,13.9c3.5,5.7,8.9,5.6,20.5-0.4c6.4-3.3,20-16,21.7-24.5c0.5-2.5-0.2-3.8-0.9-4.5
	C514,222.4,499.5,228.7,498.7,229.1z"/>
<path class="st0" d="M672.7,295.8c-0.7,0-1.4-0.2-2.1-0.6c-1-0.6-1.7-1.6-1.9-2.7c-0.1-0.8-3.5-19,15.5-34
	c16.8-13.3,38.7-27.2,47.5-18.1c1.2,1.2,2.5,3.4,2.3,6.8c-0.6,7.4-8.8,17.1-23.6,28.1c-20.4,15.1-35.8,20-36.5,20.2
	C673.5,295.8,673.1,295.8,672.7,295.8z M723.9,245.5c-4.4,0-15.5,4.2-34.7,19.4c-9.5,7.5-12,15.8-12.6,21c5.9-2.6,16.5-7.8,28.9-17
	c18.9-14,20.8-21.7,20.3-22.8C725.5,245.7,724.9,245.5,723.9,245.5z"/>
<path class="st0" d="M627.9,177.9c-1.1,0-2.2-0.2-3.3-0.6c-2.3-0.9-9.6-5.1-6.6-21.2c3.3-17.9,14.5-39.6,18.3-44.5
	c2.4-3.1,7.8-5,12.2-2.7c4.5,2.3,8.7,8.7,3.7,26.3c-7.2,25.2-14.2,35.9-14.5,36.4c-0.1,0.2-0.2,0.3-0.4,0.5
	C635.1,175.8,631.5,177.9,627.9,177.9z M644.3,116c-0.7,0-1.4,0.3-1.6,0.6c-2.5,3.1-13.5,23.3-16.7,40.9c-1.5,7.9,0.2,11.7,1.6,12.2
	c0.7,0.3,2-0.4,3-2c0.1-0.2,0.3-0.4,0.4-0.6c0.4-0.7,6.8-11,13.5-34.1c3.5-12.2,1.5-16.3,0.4-16.9C644.7,116,644.5,116,644.3,116z"
	/>
<path class="st0" d="M699,282.4c-1.3,0-2.6-0.6-3.4-1.8c-1.2-1.9-0.7-4.4,1.2-5.6c1.4-0.9,35.5-22.7,63.9-13.8
	c29.8,9.4,49.2,11.3,59.3,6c3.6-1.9,6.7-4.1,9.6-6c7.2-4.9,14.7-10,21.4-3.2c5.9,5.9,15.4,13.5,15.5,13.6c1.7,1.4,2,3.9,0.6,5.7
	c-1.4,1.7-3.9,2-5.7,0.6c-0.4-0.3-9.9-7.9-16.1-14.2c-1.7-1.7-3.5-1-11.2,4.2c-3,2-6.4,4.3-10.3,6.4c-12.4,6.7-32.6,5-65.5-5.4
	c-24.8-7.8-56.7,12.6-57,12.8C700.6,282.2,699.8,282.4,699,282.4z"/>
</svg>
