<?xml version="1.0" encoding="utf-8"?>
<!-- Generator: Adobe Illustrator 22.1.0, SVG Export Plug-In . SVG Version: 6.00 Build 0)  -->
<svg version="1.1" xmlns="http://www.w3.org/2000/svg" xmlns:xlink="http://www.w3.org/1999/xlink" x="0px" y="0px"
	 viewBox="0 0 444 411" style="enable-background:new 0 0 444 411;" xml:space="preserve">
<style type="text/css">
	.st0{fill-rule:evenodd;clip-rule:evenodd;}
	.st1{fill:#DDCCBF;}
</style>
<g id="Group_4_copy_3_1_">
	<g id="Happy">
		<g>
			<path class="st0" d="M63.6,253.2H14.8v-42.5H0.7v91.6h14.1v-45.5h48.8v45.5h14.1v-91.6H63.6V253.2z M124.8,210.7l-36.8,91.6H92
				l12.3-30.5h42.3l12.4,30.5h14.8l-37.3-91.6H124.8z M105.6,268.3l19.6-48.9l19.9,48.9H105.6z M224.3,210.7h-40v91.6h14.1V263h25.9
				c23.7,0,37.8-9.8,37.8-26.2S247.9,210.7,224.3,210.7z M224.3,259.9h-25.9v-46h25.9c15.7,0,23,7.1,23,23S240,259.9,224.3,259.9z
				 M313.7,210.7h-40v91.6h14.1V263h25.9c23.7,0,37.8-9.8,37.8-26.2S337.4,210.7,313.7,210.7z M313.7,259.9h-25.9v-46h25.9
				c15.7,0,23,7.1,23,23S329.4,259.9,313.7,259.9z M438.8,210.7l-31.9,49.7l-31.7-49.7h-15.7l35.3,55.3v36.2H409v-38.6l34-53H438.8z
				"/>
		</g>
	</g>
	<g id="Moms">
		<g>
			<path class="st0" d="M56.3,395.7l-41.3-78H0.9v91.6h3.5v-82.9l0.3,0.4l43.8,82.5h5.4l39.6-83.1v83.1h14.1v-91.6H93.5L56.3,395.7z
				 M174,316.4c-26,0-52.2,16.6-52.2,47.2c0,30.7,26.2,47,52.1,47c26.2,0,52.3-16.4,52.3-47S200.2,316.4,174,316.4z M174,407.1
				c-21.8,0-37.4-18.1-37.4-43.4c0-25.2,15.8-43.7,37.4-43.7s37.4,18.4,37.4,43.7C211.5,389.1,196,407.1,174,407.1z M296,395.7
				l-41.3-78h-14.1v91.6h3.5v-82.9l0.3,0.4l43.8,82.5h5.4l39.6-83.1v83.1h14.1v-91.6h-14.1L296,395.7z M399.6,356.7
				c-14-4.1-23.9-6.4-23.9-18.6c0-11,9.4-18.3,23.2-18.3c13.9,0,23,5.1,27.1,15.6l7.7-2.6c-4.6-9.8-18.3-16.5-34.5-16.5
				c-18.6,0-37.5,9.2-37.5,25.1c0,17.7,18.8,23.9,34.7,28.4c13.9,4.1,23.9,6.8,23.9,19c0,11-9.4,18.4-23.2,18.4
				c-14.1,0-23.4-5.2-27.5-15.6l-7.7,2.6c4.6,9.8,18.6,16.5,34.9,16.5c18.6,0,37.5-9.2,37.5-25.1
				C434.2,367.8,415.9,361.4,399.6,356.7z"/>
		</g>
	</g>
</g>
<g id="Layer_4">
	<path class="st1" d="M178.9,178.8c-19.9,0-55-9-68.3-24.2c-3-3.4-4.9-7.1-5.6-10.8c-0.2-0.2-0.3-0.4-0.5-0.6
		c-9-10.7-27.1-9.9-39.8-5.9c-10.8,3.4-15.3,0.5-18.9-1.8c-1.4-0.9-2.7-1.7-4.2-2c-4.4-1-6.9,5.9-7,6c-0.3,0.9-1.3,1.4-2.2,1.1
		c-0.9-0.3-1.4-1.3-1.1-2.2c0.1-0.4,3.6-10,11.1-8.2c2.1,0.5,3.7,1.5,5.2,2.5c3.3,2.1,6.8,4.3,16,1.4c13.4-4.2,30.7-4.9,41.1,4.5
		c0.1-0.6,0.2-1.3,0.3-1.9c5-25.9,47.3-21.5,70-19.1c2.7,0.3,5,0.5,6.9,0.7c17.8,1.5,27.9-6.3,28-6.3c0.1,0,0.1-0.1,0.2-0.1
		c2.7-1.6,6.2-4,10-6.6c7.3-5,15.7-10.7,22-13.4c8.1-3.4,14.6-1.4,17.6,2.2c2.6,3.2,2.6,7.5-0.2,11.5c-1,1.4-1.9,2.7-2.8,3.9
		c5.8-4.8,10.6-9.5,11.7-11.8c2.3-5.2,5.7-10.6,7.9-14.1c0.5-0.9,1-1.6,1.4-2.3c1.6-2.6,3.4-6.6,5-10.1c0.8-1.8,1.6-3.5,2.3-4.9
		c0.8-1.7,8.3-16.5,17.2-19c2.6-0.7,5.1-0.4,7.3,1.1c9,5.7-1.4,26.5-11.5,46.5c-1.7,3.5-3.4,6.7-4.9,9.9
		c-6.9,14.4-17.1,25-26.2,32.3c2.5-0.2,5.3-0.6,8.4-1.4c4.6-1.2,14.3-7.6,24.6-14.4c20.1-13.3,33.8-21.9,40.1-19.3
		c1.1,0.5,2.6,1.5,3.1,3.9c2.3,11.2-8.5,17.8-20,24.8c-4.9,3-10,6.1-14.6,9.7c-17.2,13.8-29.1,20.4-39.8,22.2
		c-6.8,1.1-14.7,4.5-22.3,7.8c-4.8,2.1-9.4,4-13.5,5.3c-7.2,2.3-17.3,2.5-30,2.7c-6.3,0.1-13.4,0.3-21,0.7
		C181,178.8,180,178.8,178.9,178.8z M121.3,159.1c16.6,11,45,17,60.6,16.1c7.7-0.4,14.9-0.6,21.2-0.7c12.4-0.2,22.3-0.4,29-2.6
		c4-1.3,8.4-3.2,13.2-5.2c7.8-3.4,15.8-6.8,23.1-8c10.1-1.7,21.5-8.1,38.2-21.5c4.7-3.8,9.9-7,15-10c10.9-6.6,20.3-12.3,18.4-21.1
		c-0.2-0.9-0.6-1.2-1-1.4c-5.1-2.1-23.4,10.1-36.8,19c-11,7.3-20.5,13.6-25.7,14.9c-5.5,1.4-10.1,1.6-14.2,1.7
		c-4.6,3.3-8.7,5.6-11.4,7c-7.6,4-10.1,3.3-11.3,2.5c-0.9-0.6-1.4-1.7-1.3-2.9c0.2-2.8,3.7-6.4,7.9-8.2c4.4-1.9,8.6-1.9,13.5-1.9
		c0.5,0,1,0,1.5,0c9.6-6.9,21.4-18,29.1-34c1.5-3.1,3.2-6.4,4.9-9.9c8-16,19-38,12.7-42c-1.4-0.9-2.9-1.1-4.5-0.7
		c-6.1,1.7-12.5,11.9-15,17.1c-0.7,1.4-1.5,3.1-2.3,4.8c-1.7,3.8-3.5,7.7-5.2,10.5c-0.4,0.7-0.9,1.4-1.4,2.3
		c-2.3,3.7-5.5,8.7-7.7,13.7c-2.6,5.8-20,19.4-30.1,26.1c-0.9,0.6-1.8,1.2-2.7,1.7c-0.9,0.5-1.6,1-2.3,1.3c-0.8,0.5-1.7,0.9-2.5,1.4
		c-2.5,1.4-5.1,2.8-8.1,4.7c-10.3,6.7-21.9,10.9-37.9,16.6c-4.9,1.8-10.5,3.8-16.4,6C146,166.2,131.1,164.5,121.3,159.1z
		 M108.3,142.3c0.2,0.3,0.5,0.6,0.7,0.9c8.7,10.7,20.7,25.4,61.3,10.2c6-2.2,11.5-4.2,16.4-6c15.8-5.7,27.2-9.8,37.2-16.3
		c3.1-2,5.8-3.5,8.4-4.9c0.8-0.4,1.6-0.9,2.4-1.3c0,0,0,0,0,0c6.5-3.6,12.3-7.7,21.8-21.6c1.8-2.6,1.9-5.3,0.3-7.3
		c-2.1-2.5-7.1-3.9-13.5-1.2c-6,2.6-14.2,8.1-21.4,13.1c-3.8,2.6-7.3,5-10.1,6.6c-1.2,0.9-11.9,8.6-30.3,7c-2-0.2-4.3-0.4-7-0.7
		c-21.6-2.3-61.8-6.5-66.2,16.3C108.1,138.9,108.1,140.6,108.3,142.3z M241.6,147c0.7,0,2.8-0.3,7.5-2.7c1.8-0.9,4.1-2.2,6.7-3.9
		c-3,0.1-5.7,0.4-8.4,1.6C244.1,143.5,242,145.9,241.6,147z"/>
</g>
<g id="Layer_5">
	<path class="st1" d="M157.9,119.3c-0.5,0-1-0.2-1.3-0.6c-0.4-0.4-9.2-10.9-11.4-18.8l-2-7.2c-2.5-2.4-5.8-7.7-2.4-12.6
		c1.9-2.7,4.2-3.1,5.8-3.1c2.7-0.1,5.7,1.6,7.1,3.9c1.1,1.8,1.4,3.9,0.9,5.9c-0.5,2-1.9,3.7-3.8,4.8c-0.8,0.5-1.9,0.2-2.4-0.7
		c-0.5-0.8-0.2-1.9,0.7-2.4c1.1-0.6,1.8-1.5,2.1-2.6c0.3-1.1,0.1-2.2-0.5-3.3c-0.6-1.1-2.4-2.2-3.9-2.1c-1.3,0.1-2.2,0.3-3.1,1.6
		c-2.7,3.8,2.1,8.1,2.3,8.3c0.3,0.2,0.4,0.5,0.5,0.8l2.1,7.6c2,7.2,10.6,17.4,10.7,17.5c0.6,0.7,0.5,1.8-0.2,2.5
		C158.7,119.1,158.3,119.3,157.9,119.3z"/>
	<path class="st1" d="M147,80c-0.5,0-1-0.2-1.3-0.6c-0.3-0.3-6.9-7.8-2.6-13.8c3.6-4.9,9.3-4.4,12.3-2.4c1.3,0.9,3.6,3.2,3.9,6.4
		c0.2,1.7-0.2,4.4-3,7.1c-0.7,0.7-1.8,0.7-2.5,0c-0.7-0.7-0.7-1.8,0-2.5c1.4-1.4,2.1-2.9,2-4.3c-0.2-1.7-1.5-3.2-2.3-3.8
		c-1.4-0.9-5.1-1.8-7.5,1.5c-2.7,3.7,2.3,9.4,2.3,9.4c0.6,0.7,0.6,1.8-0.1,2.5C147.8,79.8,147.4,80,147,80z"/>
	<path class="st1" d="M156.1,67.9c-0.8,0-1.6-0.6-1.7-1.4c-0.2-1,0.5-1.9,1.4-2c1.7-0.3,2.9-0.9,3.5-1.9c0.9-1.4,0.4-3.2,0.4-3.2
		c-0.2-0.7-1.4-3.9-5.4-3.2c-1.2,0.2-2.1,0.7-2.7,1.6c-1.3,2-0.7,5.1-0.7,5.1c0.2,0.9-0.4,1.9-1.3,2.1c-0.9,0.2-1.9-0.4-2.1-1.3
		c0-0.2-0.9-4.6,1.2-7.8c1.1-1.7,2.8-2.7,5-3.1c5.9-1,8.7,3.2,9.4,5.6c0.1,0.3,0.9,3.3-0.7,6c-1.1,1.9-3.1,3.1-5.9,3.6
		C156.3,67.9,156.2,67.9,156.1,67.9z"/>
	<path class="st1" d="M163.4,61.6c-0.7,0-1.5-0.1-2.2-0.2c-0.9-0.2-1.6-1.1-1.4-2.1c0.2-0.9,1.1-1.6,2.1-1.4c1.9,0.4,3.5,0.1,5-1
		c1.8-1.3,2.6-3.3,2.7-4.3c0.1-1.1-0.2-3.9-2-5.6c-1.3-1.3-3.3-1.7-5.8-1.4c-1.6,0.2-2.8,0.9-3.6,2c-1.8,2.4-1.3,6.3-1.3,6.3
		c0.1,1-0.5,1.8-1.5,2c-1,0.1-1.8-0.5-2-1.5c0-0.2-0.7-5.3,2-8.9c1.4-1.9,3.4-3,5.9-3.4c4.5-0.6,7.2,0.9,8.7,2.3
		c2.8,2.7,3.2,6.7,3.1,8.5c-0.2,2-1.6,4.9-4.1,6.8C167.3,61,165.4,61.6,163.4,61.6z"/>
	<path class="st1" d="M223.1,103c-0.7,0-1.4-0.4-1.7-1.2c-7-19.8-17.5-35.7-31.4-47.5c-0.9-0.8-1.4-1.2-1.6-1.5
		c-0.6-0.8-0.7-1.9-0.8-4.1c-0.4-7.7-1.7-15.9-11.7-15.9c-10.8,0-11.3,10.2-11.3,10.6c0,1-0.8,1.7-1.8,1.7c-1,0-1.7-0.8-1.7-1.8
		c0.1-4.9,3.4-14,14.8-14c14.1,0,14.9,13.5,15.2,19.2c0,0.8,0.1,1.8,0.2,2.2c0.2,0.2,0.6,0.5,1,0.9c14.3,12.2,25.3,28.6,32.4,49
		c0.3,0.9-0.2,1.9-1.1,2.2C223.5,103,223.3,103,223.1,103z"/>
	<path class="st1" d="M192.2,99.7c-0.2,0-0.3,0-0.5-0.1c-23.1-7.1-22.4-25.3-22.4-25.5c0-1,0.9-1.7,1.8-1.7c1,0,1.7,0.9,1.7,1.8
		c0,0.7-0.4,15.8,20,22c0.9,0.3,1.4,1.3,1.2,2.2C193.6,99.2,192.9,99.7,192.2,99.7z"/>
	<path class="st1" d="M223.1,105.4c-0.7,0-1.4-0.4-1.6-1.1c-0.4-1.1-10.4-26.3-10.1-50.4c0.2-13,5.3-20.8,7.4-23.5
		c-1.9-3.1-6.8-12.1-4.3-19.5c1.4-4,4.6-6.8,9.7-8.4c9.6-3,15.5,3.4,17.2,7.2c0.4,0.9,0,1.9-0.8,2.3c-0.9,0.4-1.9,0-2.3-0.8
		c-0.2-0.3-4-8.1-13-5.3c-4,1.3-6.4,3.3-7.4,6.2c-2.5,7.2,4.5,17.4,4.6,17.5c0.5,0.7,0.4,1.6-0.2,2.2c-0.1,0.1-7.2,7.6-7.4,22.2
		c-0.3,23.3,9.7,48.8,9.8,49c0.4,0.9-0.1,1.9-1,2.3C223.6,105.4,223.3,105.4,223.1,105.4z"/>
	<path class="st1" d="M244.9,26.9c-2,0-4.5-0.5-6.4-2.5c-1.3-1.4-2.7-3-3-6.1c-0.3-2.6,0.6-5.2,2.4-7.2c1.8-2,4.4-3.2,7-3.2
		c4.7,0,8.2,3.5,9.2,7c0.3,0.9-0.3,1.9-1.2,2.2c-0.9,0.3-1.9-0.3-2.2-1.2c-0.6-2.2-2.9-4.5-5.9-4.5c-1.6,0-3.2,0.8-4.4,2
		c-1.1,1.2-1.6,2.8-1.5,4.5c0.2,2,1,3,2,4c2.4,2.4,6.5,1.1,6.6,1.1c0.9-0.3,1.9,0.2,2.2,1.1c0.3,0.9-0.2,1.9-1.1,2.2
		C248.5,26.3,246.9,26.9,244.9,26.9z"/>
	<path class="st1" d="M254.4,29.6c-2.8,0-6.4-1.3-7.8-6.4c0,0,0-0.1,0-0.1c-0.5-2.3,0.1-4.5,1.4-6.3c1.4-1.8,3.7-3,5.9-3.2
		c1.7-0.1,4.5,0.5,6.4,2.6c1.1,1.2,2.4,3.4,2,6.9c-0.1,1-1,1.6-2,1.5c-1-0.1-1.6-1-1.5-2c0.2-1.7-0.1-3-1-4c-1-1.1-2.6-1.6-3.6-1.5
		c-1.2,0.1-2.5,0.8-3.3,1.8c-0.8,1-1,2.1-0.8,3.4c1.3,4.6,5.1,3.7,5.5,3.6c0.9-0.3,1.9,0.3,2.1,1.2c0.3,0.9-0.3,1.9-1.2,2.1
		C255.8,29.5,255.1,29.6,254.4,29.6z"/>
	<path class="st1" d="M262.4,38.1c-0.1,0-0.1,0-0.2,0c-4.6-0.4-7.4-3.8-7.4-8.7c0-3.6,3.1-7.6,8.2-7.8c2.9-0.1,5.5,1,7.1,3.2
		c1.4,1.9,2.7,5.3,0.9,11c-0.3,0.9-1.3,1.4-2.2,1.1c-0.9-0.3-1.4-1.3-1.1-2.2c1.1-3.3,1-6.1-0.3-7.8c-0.9-1.2-2.5-1.9-4.2-1.8
		c-3.4,0.1-4.8,2.9-4.8,4.3c0,3.1,1.5,5,4.2,5.3c1,0.1,1.7,0.9,1.6,1.9C264,37.4,263.3,38.1,262.4,38.1z"/>
	<path class="st1" d="M276.6,87.9c-0.2,0-0.4,0-0.6-0.1c-0.9-0.3-1.4-1.3-1.1-2.2c6.3-18.4,1.9-35.9,1-37.6c-0.8-1.5-0.1-2.9,0.4-4
		c0.5-1,1.1-2.1,1-3.7c-0.1-2.3-1.8-3.9-4-4c-1.1-0.1-2.1,0.3-2.9,1.1c-0.8,0.7-1.2,1.7-1.3,2.7c-0.1,3.1,2.2,4,2.5,4.1
		c0.9,0.3,1.4,1.3,1.1,2.2c-0.3,0.9-1.3,1.4-2.2,1.1c-1.8-0.6-5-2.9-4.9-7.6c0.1-2,0.9-3.8,2.4-5.1c1.5-1.4,3.5-2.1,5.5-2
		c4,0.2,7.1,3.3,7.3,7.3c0.1,2.6-0.8,4.3-1.4,5.5c-0.1,0.3-0.3,0.7-0.4,0.9c1,2.4,5.9,20.6-0.9,40.3C278,87.4,277.4,87.9,276.6,87.9
		z"/>
	<path class="st1" d="M248.1,71.7c-0.3,0-0.6-0.1-0.9-0.3c-0.8-0.5-1.1-1.6-0.6-2.4c6.1-9.7,4-23,4-23.1c-0.2-1,0.5-1.9,1.4-2
		c1-0.2,1.9,0.5,2,1.4c0.1,0.6,2.3,14.7-4.5,25.5C249.3,71.4,248.7,71.7,248.1,71.7z"/>
	<path class="st1" d="M241.3,119.2c-2.2,0-4.4-0.9-6-3.5c-1.9-3.1-2.6-6.1-1.9-8.7c0.5-2,1.8-3.7,3.7-4.8c3.8-2.3,8.1-4.4,8.2-4.5
		c0,0,0,0,0,0c0.4-0.2,9-4.1,13.5,1.2c1.1,1.3,1.5,3,1.1,4.9c-1,5.2-8,11.4-11.2,13C247.1,117.6,244.2,119.2,241.3,119.2z
		 M246.8,100.8c-0.3,0.2-4.4,2.2-8,4.4c-1.1,0.7-1.8,1.6-2.1,2.7c-0.4,1.6,0.1,3.8,1.5,6c1.5,2.5,3.8,2.4,8.9-0.2
		c2.8-1.4,8.7-6.9,9.4-10.6c0.2-1.1-0.1-1.6-0.4-1.9C253.4,97.9,247.1,100.6,246.8,100.8z"/>
	<path class="st1" d="M322,129.6c-0.3,0-0.6-0.1-0.9-0.2c-0.4-0.3-0.7-0.7-0.8-1.2c-0.1-0.3-1.5-8.2,6.7-14.7
		c7.3-5.7,16.7-11.8,20.5-7.8c0.5,0.5,1.1,1.5,1,3c-0.3,3.2-3.8,7.4-10.2,12.1c-8.8,6.5-15.5,8.7-15.8,8.7
		C322.4,129.6,322.2,129.6,322,129.6z M344.1,107.9c-1.9,0-6.7,1.8-15,8.4c-4.1,3.2-5.2,6.8-5.4,9.1c2.6-1.1,7.1-3.4,12.5-7.3
		c8.2-6.1,9-9.4,8.8-9.9C344.8,108,344.6,107.9,344.1,107.9z"/>
	<path class="st1" d="M302.7,78.7c-0.5,0-1-0.1-1.4-0.3c-1-0.4-4.2-2.2-2.9-9.2c1.4-7.7,6.3-17.1,7.9-19.2c1-1.3,3.4-2.1,5.3-1.2
		c1.9,1,3.8,3.8,1.6,11.4c-3.1,10.9-6.1,15.5-6.3,15.7c0,0.1-0.1,0.1-0.2,0.2C305.7,77.7,304.2,78.7,302.7,78.7z M309.7,51.9
		c-0.3,0-0.6,0.1-0.7,0.3c-1.1,1.4-5.8,10.1-7.2,17.7c-0.6,3.4,0.1,5,0.7,5.3c0.3,0.1,0.9-0.2,1.3-0.9c0.1-0.1,0.1-0.2,0.2-0.2
		c0.2-0.3,3-4.8,5.8-14.7c1.5-5.3,0.6-7.1,0.2-7.3C309.9,51.9,309.8,51.9,309.7,51.9z"/>
	<path class="st1" d="M333.4,123.8c-0.6,0-1.1-0.3-1.5-0.8c-0.5-0.8-0.3-1.9,0.5-2.4c0.6-0.4,15.3-9.8,27.6-6
		c12.9,4.1,21.3,4.9,25.6,2.6c1.5-0.8,2.9-1.8,4.1-2.6c3.1-2.1,6.4-4.3,9.3-1.4c2.6,2.6,6.6,5.8,6.7,5.9c0.8,0.6,0.9,1.7,0.3,2.5
		c-0.6,0.8-1.7,0.9-2.5,0.3c-0.2-0.1-4.3-3.4-7-6.1c-0.7-0.7-1.5-0.4-4.8,1.8c-1.3,0.9-2.7,1.9-4.4,2.8c-5.4,2.9-14.1,2.2-28.3-2.3
		c-10.7-3.4-24.5,5.5-24.7,5.5C334,123.7,333.7,123.8,333.4,123.8z"/>
</g>
</svg>
