<?xml version="1.0" encoding="utf-8"?>
<!-- Generator: Adobe Illustrator 22.1.0, SVG Export Plug-In . SVG Version: 6.00 Build 0)  -->
<svg version="1.1" id="Layer_1" xmlns="http://www.w3.org/2000/svg" xmlns:xlink="http://www.w3.org/1999/xlink" x="0px" y="0px"
	 viewBox="0 0 41 41" style="enable-background:new 0 0 41 41;" xml:space="preserve">
<style type="text/css">
	.st0{fill:#998679;}
</style>
<path class="st0" d="M27.7,9.1c-0.4,0-0.8-0.2-1.1-0.5l-4.9-5c-0.3-0.3-0.7-0.5-1.1-0.5s-0.8,0.2-1.1,0.5l-4.9,5
	c-0.6,0.6-1.6,0.6-2.3,0c-0.6-0.6-0.6-1.6,0-2.3l4.9-5C18,0.5,19.2,0,20.5,0c1.3,0,2.5,0.5,3.4,1.4l4.9,5c0.6,0.6,0.6,1.6,0,2.3
	C28.5,9,28.1,9.1,27.7,9.1z M23.9,39.6l4.9-5c0.6-0.6,0.6-1.6,0-2.3c-0.6-0.6-1.6-0.6-2.3,0l-4.9,5c-0.3,0.3-0.7,0.5-1.1,0.5
	s-0.8-0.2-1.1-0.5l-4.9-5c-0.6-0.6-1.6-0.6-2.3,0c-0.6,0.6-0.6,1.6,0,2.3l4.9,5c0.9,0.9,2.1,1.4,3.4,1.4C21.8,41,23,40.5,23.9,39.6z
	 M26,20.4c0-3.1-2.5-5.6-5.6-5.6s-5.6,2.5-5.6,5.6s2.5,5.6,5.6,5.6S26,23.5,26,20.4z M22.8,20.4c0,1.3-1.1,2.4-2.4,2.4
	S18,21.7,18,20.4s1.1-2.4,2.4-2.4S22.8,19.1,22.8,20.4z"/>
</svg>
