<?xml version="1.0" encoding="utf-8"?>
<!-- Generator: Adobe Illustrator 22.1.0, SVG Export Plug-In . SVG Version: 6.00 Build 0)  -->
<svg version="1.1" id="Capa_1" xmlns="http://www.w3.org/2000/svg" xmlns:xlink="http://www.w3.org/1999/xlink" x="0px" y="0px"
	 viewBox="0 0 46 46" style="enable-background:new 0 0 46 46;" xml:space="preserve">
<style type="text/css">
	.st0{fill:#CDB09C;}
</style>
<g>
	<g>
		<path class="st0" d="M41.7,23.3c-0.5-2.1-2.2-3.6-4.2-3.8c-4.8-0.5-9.7-0.5-14.5-0.5c-4.9,0-9.7,0-14.5,0.5
			c-2,0.2-3.7,1.8-4.2,3.8c-0.7,2.9-0.7,6.2-0.7,9.2c0,3,0,6.2,0.7,9.2c0.5,2.1,2.2,3.6,4.2,3.8C13.3,46,18.1,46,23,46
			c4.9,0,9.7,0,14.5-0.5c2-0.2,3.7-1.8,4.2-3.8c0.7-2.9,0.7-6.2,0.7-9.2C42.4,29.4,42.4,26.2,41.7,23.3z M14.7,25.6h-2.8v14.9H9.2
			V25.6H6.5v-2.4h8.2V25.6z M21.8,40.5h-2.3v-1.4c-0.9,1.1-1.8,1.6-2.7,1.6c-0.8,0-1.3-0.3-1.5-1c-0.1-0.4-0.2-1-0.2-1.9V27.6h2.3
			v9.5c0,0.5,0,0.8,0,0.9c0.1,0.4,0.2,0.5,0.5,0.5c0.5,0,1-0.4,1.5-1.1v-9.9h2.3L21.8,40.5L21.8,40.5z M30.7,36.6
			c0,1.2-0.1,2.1-0.2,2.6c-0.3,1-0.9,1.5-1.9,1.5c-0.8,0-1.6-0.5-2.4-1.4v1.3h-2.3V23.1h2.3v5.7c0.8-0.9,1.6-1.4,2.4-1.4
			c0.9,0,1.6,0.5,1.9,1.5c0.2,0.5,0.2,1.4,0.2,2.6V36.6z M39.5,34.5h-4.7v2.3c0,1.2,0.4,1.8,1.2,1.8c0.6,0,0.9-0.3,1-0.9
			c0-0.1,0.1-0.6,0.1-1.6h2.4v0.3c0,0.8,0,1.3-0.1,1.5c-0.1,0.5-0.3,1-0.5,1.4c-0.6,0.9-1.6,1.4-2.8,1.4c-1.2,0-2.2-0.4-2.8-1.3
			c-0.5-0.6-0.8-1.7-0.8-3v-4.5c0-1.4,0.2-2.4,0.7-3.1c0.7-0.9,1.6-1.3,2.8-1.3c1.2,0,2.1,0.4,2.8,1.3c0.5,0.7,0.7,1.7,0.7,3.1
			L39.5,34.5L39.5,34.5z"/>
		<path class="st0" d="M36,29.5c-0.8,0-1.2,0.6-1.2,1.8v1.2h2.3v-1.2C37.2,30.1,36.8,29.5,36,29.5z"/>
		<path class="st0" d="M27.3,29.5c-0.4,0-0.8,0.2-1.2,0.6V38c0.4,0.4,0.8,0.6,1.2,0.6c0.7,0,1-0.6,1-1.7v-5.5
			C28.3,30.1,28,29.5,27.3,29.5z"/>
		<path class="st0" d="M28.6,17.7c0.9,0,1.8-0.5,2.7-1.6v1.4h2.4V4.5h-2.4v10c-0.5,0.7-1,1.1-1.5,1.1c-0.3,0-0.5-0.2-0.6-0.6
			c0-0.1,0-0.4,0-0.9V4.5h-2.4v10.3c0,0.9,0.1,1.5,0.2,1.9C27.3,17.4,27.8,17.7,28.6,17.7z"/>
		<path class="st0" d="M12.1,10.4v7.1h2.6v-7.1L17.9,0h-2.7l-1.8,6.9L11.6,0H8.8c0.6,1.6,1.1,3.3,1.7,4.9
			C11.3,7.3,11.9,9.2,12.1,10.4z"/>
		<path class="st0" d="M21.4,17.7c1.2,0,2.1-0.4,2.8-1.3c0.5-0.7,0.7-1.7,0.7-3.1V8.7c0-1.4-0.2-2.4-0.7-3.1
			c-0.7-0.9-1.6-1.3-2.8-1.3c-1.2,0-2.1,0.4-2.8,1.3c-0.5,0.7-0.7,1.7-0.7,3.1v4.6c0,1.4,0.2,2.4,0.7,3.1
			C19.3,17.3,20.2,17.7,21.4,17.7z M20.3,8.3c0-1.2,0.4-1.8,1.1-1.8c0.8,0,1.1,0.6,1.1,1.8v5.5c0,1.2-0.4,1.8-1.1,1.8
			c-0.8,0-1.1-0.6-1.1-1.8V8.3z"/>
	</g>
</g>
</svg>
